RobotoSerifDisplay-RegularConditalic.ufo
<glyph name="numbersign" format="2">
  <advance width="429"/>
  <unicode hex="0023"/>
  <outline>
    <contour>
      <point x="58" y="0" type="line"/>
      <point x="84" y="0" type="line"/>
      <point x="243" y="750" type="line"/>
      <point x="216" y="750" type="line"/>
    </contour>
    <contour>
      <point x="25" y="232" type="line"/>
      <point x="376" y="232" type="line"/>
      <point x="378" y="306" type="line"/>
      <point x="27" y="306" type="line"/>
    </contour>
    <contour>
      <point x="67" y="464" type="line"/>
      <point x="419" y="464" type="line"/>
      <point x="420" y="538" type="line"/>
      <point x="69" y="538" type="line"/>
    </contour>
    <contour>
      <point x="196" y="0" type="line"/>
      <point x="222" y="0" type="line"/>
      <point x="381" y="750" type="line"/>
      <point x="354" y="750" type="line"/>
    </contour>
  </outline>
</glyph>
<glyph name="dollar" format="2">
  <advance width="393"/>
  <unicode hex="0024"/>
  <outline>
    <contour>
      <point x="181" y="12" type="curve" smooth="yes"/>
      <point x="285" y="12"/>
      <point x="356" y="86"/>
      <point x="356" y="211" type="curve" smooth="yes"/>
      <point x="356" y="318"/>
      <point x="296" y="362"/>
      <point x="229" y="406" type="curve" smooth="yes"/>
      <point x="157" y="456"/>
      <point x="129" y="473"/>
      <point x="129" y="543" type="curve" smooth="yes"/>
      <point x="129" y="613"/>
      <point x="166" y="661"/>
      <point x="239" y="661" type="curve" smooth="yes"/>
      <point x="287" y="661"/>
      <point x="323" y="645"/>
      <point x="350" y="591" type="curve"/>
      <point x="345" y="615"/>
      <point x="337" y="636"/>
      <point x="325" y="654" type="curve"/>
      <point x="309" y="527" type="line"/>
      <point x="374" y="527" type="line"/>
      <point x="387" y="629" type="line"/>
      <point x="360" y="667"/>
      <point x="304" y="698"/>
      <point x="242" y="698" type="curve" smooth="yes"/>
      <point x="140" y="698"/>
      <point x="72" y="627"/>
      <point x="72" y="521" type="curve" smooth="yes"/>
      <point x="72" y="413"/>
      <point x="128" y="375"/>
      <point x="193" y="332" type="curve" smooth="yes"/>
      <point x="258" y="289"/>
      <point x="292" y="257"/>
      <point x="292" y="186" type="curve" smooth="yes"/>
      <point x="292" y="109"/>
      <point x="253" y="49"/>
      <point x="184" y="49" type="curve" smooth="yes"/>
      <point x="125" y="49"/>
      <point x="80" y="72"/>
      <point x="56" y="116" type="curve"/>
      <point x="57" y="103"/>
      <point x="60" y="93"/>
      <point x="66" y="83" type="curve"/>
      <point x="84" y="213" type="line"/>
      <point x="14" y="213" type="line"/>
      <point x="-1" y="107" type="line"/>
      <point x="21" y="71"/>
      <point x="95" y="12"/>
    </contour>
    <contour>
      <point x="131" y="-120" type="line"/>
      <point x="159" y="-120" type="line"/>
      <point x="177" y="22" type="line"/>
      <point x="179" y="35" type="line"/>
      <point x="257" y="672" type="line"/>
      <point x="258" y="683" type="line"/>
      <point x="272" y="790" type="line"/>
      <point x="244" y="790" type="line"/>
      <point x="230" y="686" type="line"/>
      <point x="228" y="670" type="line"/>
      <point x="150" y="36" type="line"/>
      <point x="149" y="26" type="line"/>
    </contour>
  </outline>
</glyph>
<glyph name="plus" format="2">
  <advance width="393"/>
  <unicode hex="002B"/>
  <outline>
    <contour>
      <point x="210" y="556" type="line"/>
      <point x="157" y="126" type="line"/>
      <point x="182" y="126" type="line"/>
      <point x="236" y="556" type="line"/>
    </contour>
    <contour>
      <point x="347" y="357" type="line"/>
      <point x="49" y="357" type="line"/>
      <point x="46" y="325" type="line"/>
      <point x="343" y="325" type="line"/>
    </contour>
  </outline>
</glyph>
<glyph name="hyphen" format="2">
  <advance width="264"/>
  <unicode hex="002D"/>
  <outline>
    <contour>
      <point x="40" y="334" type="line"/>
      <point x="31" y="267" type="line"/>
      <point x="216" y="267" type="line"/>
      <point x="226" y="334" type="line"/>
    </contour>
  </outline>
</glyph>
<glyph name="period" format="2">
  <advance width="170"/>
  <unicode hex="002E"/>
  <outline>
    <contour>
      <point x="129" y="53" type="curve" smooth="yes"/>
      <point x="129" y="88"/>
      <point x="111" y="112"/>
      <point x="84" y="112" type="curve" smooth="yes"/>
      <point x="56" y="112"/>
      <point x="39" y="88"/>
      <point x="39" y="53" type="curve" smooth="yes"/>
      <point x="39" y="18"/>
      <point x="56" y="-7"/>
      <point x="84" y="-7" type="curve" smooth="yes"/>
      <point x="111" y="-7"/>
      <point x="129" y="18"/>
    </contour>
  </outline>
</glyph>
<glyph name="two" format="2">
  <advance width="393"/>
  <unicode hex="0032"/>
  <outline>
    <contour>
      <point x="-9" y="0" type="line"/>
      <point x="-1" y="56" type="line"/>
      <point x="174" y="181"/>
      <point x="280" y="299"/>
      <point x="280" y="457" type="curve" smooth="yes"/>
      <point x="280" y="539"/>
      <point x="251" y="587"/>
      <point x="202" y="587" type="curve" smooth="yes"/>
      <point x="169" y="587"/>
      <point x="146" y="576"/>
      <point x="109" y="541" type="curve"/>
      <point x="116" y="550"/>
      <point x="118" y="561"/>
      <point x="134" y="568" type="curve"/>
      <point x="120" y="445" type="line"/>
      <point x="51" y="445" type="line"/>
      <point x="63" y="548" type="line"/>
      <point x="91" y="577"/>
      <point x="141" y="618"/>
      <point x="207" y="618" type="curve" smooth="yes"/>
      <point x="309" y="618"/>
      <point x="359" y="554"/>
      <point x="359" y="449" type="curve" smooth="yes"/>
      <point x="359" y="294"/>
      <point x="212" y="173"/>
      <point x="38" y="52" type="curve"/>
      <point x="42" y="76" type="line"/>
      <point x="214" y="76" type="line" smooth="yes"/>
      <point x="274" y="76"/>
      <point x="298" y="89"/>
      <point x="308" y="131" type="curve" smooth="yes"/>
      <point x="328" y="210" type="line"/>
      <point x="352" y="210" type="line"/>
      <point x="326" y="0" type="line"/>
    </contour>
  </outline>
</glyph>
<glyph name="four" format="2">
  <advance width="393"/>
  <unicode hex="0034"/>
  <outline>
    <contour>
      <point x="-1" y="112" type="line"/>
      <point x="368" y="112" type="line"/>
      <point x="377" y="175" type="line"/>
      <point x="32" y="175" type="line"/>
      <point x="28" y="145" type="line"/>
      <point x="307" y="601" type="line"/>
      <point x="310" y="609" type="line"/>
      <point x="281" y="609" type="line"/>
      <point x="6" y="166" type="line"/>
    </contour>
    <contour>
      <point x="269" y="-77" type="line"/>
      <point x="353" y="609" type="line"/>
      <point x="294" y="609" type="line"/>
      <point x="269" y="573" type="line"/>
      <point x="190" y="-77" type="line"/>
    </contour>
  </outline>
</glyph>
<glyph name="eight" format="2">
  <advance width="393"/>
  <unicode hex="0038"/>
  <outline>
    <contour>
      <point x="184" y="23" type="curve" smooth="yes"/>
      <point x="127" y="23"/>
      <point x="92" y="81"/>
      <point x="92" y="187" type="curve" smooth="yes"/>
      <point x="92" y="202"/>
      <point x="92" y="216"/>
      <point x="95" y="231" type="curve" smooth="yes"/>
      <point x="106" y="309"/>
      <point x="143" y="361"/>
      <point x="193" y="361" type="curve" smooth="yes"/>
      <point x="251" y="361"/>
      <point x="282" y="301"/>
      <point x="282" y="218" type="curve" smooth="yes"/>
      <point x="282" y="199"/>
      <point x="281" y="181"/>
      <point x="278" y="163" type="curve" smooth="yes"/>
      <point x="267" y="79"/>
      <point x="235" y="23"/>
    </contour>
    <contour>
      <point x="222" y="391" type="curve" smooth="yes"/>
      <point x="177" y="391"/>
      <point x="150" y="440"/>
      <point x="150" y="526" type="curve" smooth="yes"/>
      <point x="150" y="543"/>
      <point x="150" y="560"/>
      <point x="153" y="576" type="curve" smooth="yes"/>
      <point x="163" y="647"/>
      <point x="190" y="687"/>
      <point x="230" y="687" type="curve" smooth="yes"/>
      <point x="274" y="687"/>
      <point x="301" y="640"/>
      <point x="301" y="554" type="curve" smooth="yes"/>
      <point x="301" y="537"/>
      <point x="299" y="521"/>
      <point x="297" y="506" type="curve" smooth="yes"/>
      <point x="288" y="435"/>
      <point x="259" y="391"/>
    </contour>
    <contour>
      <point x="184" y="-10" type="curve" smooth="yes"/>
      <point x="296" y="-10"/>
      <point x="365" y="84"/>
      <point x="365" y="197" type="curve" smooth="yes"/>
      <point x="365" y="293"/>
      <point x="318" y="357"/>
      <point x="246" y="378" type="curve"/>
      <point x="250" y="368" type="line"/>
      <point x="254" y="380" type="line"/>
      <point x="245" y="370" type="line"/>
      <point x="329" y="381"/>
      <point x="376" y="451"/>
      <point x="376" y="545" type="curve" smooth="yes"/>
      <point x="376" y="648"/>
      <point x="316" y="720"/>
      <point x="230" y="720" type="curve" smooth="yes"/>
      <point x="138" y="720"/>
      <point x="74" y="643"/>
      <point x="74" y="542" type="curve" smooth="yes"/>
      <point x="74" y="463"/>
      <point x="111" y="402"/>
      <point x="167" y="379" type="curve"/>
      <point x="161" y="389" type="line"/>
      <point x="159" y="378" type="line"/>
      <point x="167" y="386" type="line"/>
      <point x="72" y="376"/>
      <point x="10" y="307"/>
      <point x="10" y="194" type="curve" smooth="yes"/>
      <point x="10" y="72"/>
      <point x="86" y="-10"/>
    </contour>
  </outline>
</glyph>
<glyph name="nine" format="2">
  <advance width="393"/>
  <unicode hex="0039"/>
  <outline>
    <contour>
      <point x="204" y="619" type="curve" smooth="yes"/>
      <point x="302" y="619"/>
      <point x="369" y="529"/>
      <point x="369" y="360" type="curve" smooth="yes"/>
      <point x="369" y="121"/>
      <point x="249" y="-84"/>
      <point x="21" y="-93" type="curve"/>
      <point x="22" y="-67" type="line"/>
      <point x="182" y="-57"/>
      <point x="263" y="70"/>
      <point x="283" y="287" type="curve" smooth="yes"/>
      <point x="287" y="316"/>
      <point x="291" y="350"/>
      <point x="291" y="383" type="curve" smooth="yes"/>
      <point x="291" y="519"/>
      <point x="259" y="586"/>
      <point x="205" y="586" type="curve" smooth="yes"/>
      <point x="161" y="586"/>
      <point x="129" y="529"/>
      <point x="119" y="442" type="curve" smooth="yes"/>
      <point x="115" y="419"/>
      <point x="113" y="396"/>
      <point x="113" y="372" type="curve" smooth="yes"/>
      <point x="113" y="263"/>
      <point x="139" y="211"/>
      <point x="186" y="211" type="curve" smooth="yes"/>
      <point x="235" y="211"/>
      <point x="272" y="267"/>
      <point x="301" y="355" type="curve"/>
      <point x="301" y="318" type="line"/>
      <point x="277" y="241"/>
      <point x="229" y="177"/>
      <point x="166" y="177" type="curve" smooth="yes"/>
      <point x="89" y="177"/>
      <point x="31" y="261"/>
      <point x="31" y="378" type="curve" smooth="yes"/>
      <point x="31" y="513"/>
      <point x="103" y="619"/>
    </contour>
  </outline>
</glyph>
<glyph name="less" format="2">
  <advance width="393"/>
  <unicode hex="003C"/>
  <outline>
    <contour>
      <point x="306" y="160" type="line"/>
      <point x="65" y="327" type="line"/>
      <point x="70" y="364" type="line"/>
      <point x="352" y="528" type="line"/>
      <point x="347" y="489" type="line"/>
      <point x="83" y="336" type="line"/>
      <point x="85" y="354" type="line"/>
      <point x="311" y="196" type="line"/>
    </contour>
  </outline>
</glyph>
<glyph name="at" format="2">
  <advance width="636"/>
  <unicode hex="0040"/>
  <outline>
    <contour>
      <point x="310" y="-153" type="curve" smooth="yes"/>
      <point x="389" y="-153"/>
      <point x="451" y="-123"/>
      <point x="489" y="-87" type="curve"/>
      <point x="485" y="-54" type="line"/>
      <point x="443" y="-92"/>
      <point x="396" y="-122"/>
      <point x="310" y="-122" type="curve" smooth="yes"/>
      <point x="168" y="-122"/>
      <point x="66" y="10"/>
      <point x="66" y="223" type="curve" smooth="yes"/>
      <point x="66" y="461"/>
      <point x="186" y="642"/>
      <point x="352" y="642" type="curve" smooth="yes"/>
      <point x="486" y="642"/>
      <point x="562" y="512"/>
      <point x="562" y="357" type="curve" smooth="yes"/>
      <point x="562" y="171"/>
      <point x="509" y="80"/>
      <point x="450" y="80" type="curve" smooth="yes"/>
      <point x="432" y="80"/>
      <point x="418" y="98"/>
      <point x="418" y="138" type="curve" smooth="yes"/>
      <point x="418" y="149"/>
      <point x="419" y="163"/>
      <point x="422" y="177" type="curve" smooth="yes"/>
      <point x="476" y="468" type="line"/>
      <point x="438" y="468" type="line"/>
      <point x="402" y="399" type="line"/>
      <point x="393" y="395" type="line"/>
      <point x="349" y="140" type="line"/>
      <point x="356" y="144" type="line"/>
      <point x="362" y="93"/>
      <point x="390" y="49"/>
      <point x="438" y="49" type="curve" smooth="yes"/>
      <point x="524" y="49"/>
      <point x="605" y="161"/>
      <point x="605" y="355" type="curve" smooth="yes"/>
      <point x="605" y="529"/>
      <point x="507" y="673"/>
      <point x="352" y="673" type="curve" smooth="yes"/>
      <point x="162" y="673"/>
      <point x="19" y="474"/>
      <point x="19" y="220" type="curve" smooth="yes"/>
      <point x="19" y="-18"/>
      <point x="145" y="-153"/>
    </contour>
    <contour>
      <point x="266" y="49" type="curve" smooth="yes"/>
      <point x="316" y="49"/>
      <point x="355" y="108"/>
      <point x="393" y="228" type="curve"/>
      <point x="375" y="237" type="line"/>
      <point x="345" y="130"/>
      <point x="311" y="81"/>
      <point x="278" y="81" type="curve" smooth="yes"/>
      <point x="250" y="81"/>
      <point x="235" y="118"/>
      <point x="235" y="198" type="curve" smooth="yes"/>
      <point x="235" y="317"/>
      <point x="273" y="443"/>
      <point x="336" y="443" type="curve" smooth="yes"/>
      <point x="368" y="443"/>
      <point x="387" y="416"/>
      <point x="396" y="369" type="curve"/>
      <point x="414" y="384" type="line"/>
      <point x="398" y="444"/>
      <point x="369" y="474"/>
      <point x="326" y="474" type="curve" smooth="yes"/>
      <point x="223" y="474"/>
      <point x="165" y="335"/>
      <point x="165" y="210" type="curve" smooth="yes"/>
      <point x="165" y="101"/>
      <point x="211" y="49"/>
    </contour>
  </outline>
</glyph>
<glyph name="C" format="2">
  <advance width="500"/>
  <unicode hex="0043"/>
  <anchor x="264" y="741" name="top"/>
  <anchor x="264" y="0" name="bottom"/>
  <outline>
    <contour>
      <point x="313" y="684" type="curve" smooth="yes"/>
      <point x="398" y="684"/>
      <point x="443" y="604"/>
      <point x="455" y="511" type="curve"/>
      <point x="479" y="511" type="line"/>
      <point x="504" y="710" type="line"/>
      <point x="476" y="710" type="line"/>
      <point x="453" y="591" type="line"/>
      <point x="466" y="578" type="line"/>
      <point x="445" y="661"/>
      <point x="386" y="720"/>
      <point x="305" y="720" type="curve" smooth="yes"/>
      <point x="142" y="720"/>
      <point x="27" y="549"/>
      <point x="27" y="322" type="curve" smooth="yes"/>
      <point x="27" y="126"/>
      <point x="125" y="-10"/>
      <point x="252" y="-10" type="curve" smooth="yes"/>
      <point x="354" y="-10"/>
      <point x="431" y="79"/>
      <point x="467" y="221" type="curve"/>
      <point x="443" y="237" type="line"/>
      <point x="414" y="112"/>
      <point x="347" y="26"/>
      <point x="261" y="26" type="curve" smooth="yes"/>
      <point x="171" y="26"/>
      <point x="115" y="129"/>
      <point x="115" y="290" type="curve" smooth="yes"/>
      <point x="115" y="520"/>
      <point x="194" y="684"/>
    </contour>
  </outline>
</glyph>
<glyph name="G" format="2">
  <advance width="531"/>
  <unicode hex="0047"/>
  <anchor x="268" y="741" name="top"/>
  <anchor x="268" y="0" name="bottom"/>
  <outline>
    <contour>
      <point x="453" y="91" type="curve"/>
      <point x="475" y="273" type="line" smooth="yes"/>
      <point x="479" y="302"/>
      <point x="503" y="309"/>
      <point x="522" y="309" type="curve" smooth="yes"/>
      <point x="526" y="309" type="line"/>
      <point x="529" y="334" type="line"/>
      <point x="343" y="334" type="line"/>
      <point x="339" y="309" type="line"/>
      <point x="348" y="309" type="line" smooth="yes"/>
      <point x="393" y="309"/>
      <point x="400" y="290"/>
      <point x="397" y="273" type="curve" smooth="yes"/>
      <point x="373" y="76" type="line"/>
      <point x="359" y="56"/>
      <point x="318" y="26"/>
      <point x="266" y="26" type="curve" smooth="yes"/>
      <point x="172" y="26"/>
      <point x="116" y="122"/>
      <point x="116" y="290" type="curve" smooth="yes"/>
      <point x="116" y="502"/>
      <point x="184" y="684"/>
      <point x="312" y="684" type="curve" smooth="yes"/>
      <point x="398" y="684"/>
      <point x="445" y="604"/>
      <point x="457" y="511" type="curve"/>
      <point x="482" y="511" type="line"/>
      <point x="506" y="710" type="line"/>
      <point x="479" y="710" type="line"/>
      <point x="455" y="590" type="line"/>
      <point x="469" y="578" type="line"/>
      <point x="447" y="660"/>
      <point x="387" y="720"/>
      <point x="306" y="720" type="curve" smooth="yes"/>
      <point x="142" y="720"/>
      <point x="28" y="546"/>
      <point x="28" y="322" type="curve" smooth="yes"/>
      <point x="28" y="124"/>
      <point x="126" y="-10"/>
      <point x="264" y="-10" type="curve" smooth="yes"/>
      <point x="344" y="-10"/>
      <point x="416" y="42"/>
    </contour>
  </outline>
</glyph>
<glyph name="L" format="2">
  <advance width="417"/>
  <unicode hex="004C"/>
  <anchor x="286" y="741" name="top"/>
  <anchor x="374" y="710" name="right"/>
  <anchor x="376" y="410" name="mid"/>
  <anchor x="286" y="0" name="bottom"/>
  <outline>
    <contour>
      <point x="275" y="710" type="line"/>
      <point x="78" y="710" type="line"/>
      <point x="74" y="679" type="line"/>
      <point x="79" y="679" type="line" smooth="yes"/>
      <point x="103" y="679"/>
      <point x="129" y="672"/>
      <point x="127" y="647" type="curve" smooth="yes"/>
      <point x="55" y="63" type="line" smooth="yes"/>
      <point x="51" y="37"/>
      <point x="25" y="31"/>
      <point x="-2" y="31" type="curve" smooth="yes"/>
      <point x="-7" y="31" type="line"/>
      <point x="-10" y="0" type="line"/>
      <point x="351" y="0" type="line"/>
      <point x="378" y="222" type="line"/>
      <point x="353" y="222" type="line"/>
      <point x="322" y="93" type="line" smooth="yes"/>
      <point x="312" y="49"/>
      <point x="287" y="35"/>
      <point x="228" y="35" type="curve" smooth="yes"/>
      <point x="134" y="35" type="line"/>
      <point x="212" y="668" type="line" smooth="yes"/>
      <point x="213" y="676"/>
      <point x="241" y="679"/>
      <point x="264" y="679" type="curve" smooth="yes"/>
      <point x="271" y="679" type="line"/>
    </contour>
  </outline>
</glyph>
<glyph name="P" format="2">
  <advance width="450"/>
  <unicode hex="0050"/>
  <outline>
    <contour>
      <point x="172" y="338" type="line"/>
      <point x="213" y="675" type="line"/>
      <point x="270" y="675" type="line" smooth="yes"/>
      <point x="332" y="675"/>
      <point x="364" y="627"/>
      <point x="364" y="533" type="curve" smooth="yes"/>
      <point x="364" y="422"/>
      <point x="321" y="338"/>
      <point x="235" y="338" type="curve" smooth="yes"/>
    </contour>
    <contour>
      <point x="78" y="710" type="line"/>
      <point x="74" y="679" type="line"/>
      <point x="79" y="679" type="line" smooth="yes"/>
      <point x="102" y="679"/>
      <point x="129" y="672"/>
      <point x="127" y="647" type="curve" smooth="yes"/>
      <point x="55" y="64" type="line" smooth="yes"/>
      <point x="51" y="38"/>
      <point x="25" y="31"/>
      <point x="-2" y="31" type="curve" smooth="yes"/>
      <point x="-7" y="31" type="line"/>
      <point x="-10" y="0" type="line"/>
      <point x="198" y="0" type="line"/>
      <point x="201" y="31" type="line"/>
      <point x="190" y="31" type="line" smooth="yes"/>
      <point x="165" y="31"/>
      <point x="135" y="35"/>
      <point x="137" y="55" type="curve" smooth="yes"/>
      <point x="167" y="304" type="line"/>
      <point x="237" y="304" type="line" smooth="yes"/>
      <point x="371" y="304"/>
      <point x="449" y="402"/>
      <point x="449" y="525" type="curve" smooth="yes"/>
      <point x="449" y="644"/>
      <point x="387" y="710"/>
      <point x="279" y="710" type="curve" smooth="yes"/>
    </contour>
  </outline>
</glyph>
<glyph name="Q" format="2">
  <advance width="549"/>
  <unicode hex="0051"/>
  <outline>
    <contour>
      <point x="526" y="388" type="curve" smooth="yes"/>
      <point x="526" y="586"/>
      <point x="427" y="720"/>
      <point x="300" y="720" type="curve" smooth="yes"/>
      <point x="146" y="720"/>
      <point x="26" y="546"/>
      <point x="26" y="322" type="curve" smooth="yes"/>
      <point x="26" y="124"/>
      <point x="124" y="-10"/>
      <point x="252" y="-10" type="curve" smooth="yes"/>
      <point x="406" y="-10"/>
      <point x="526" y="164"/>
    </contour>
    <contour>
      <point x="253" y="26" type="curve" smooth="yes"/>
      <point x="171" y="26"/>
      <point x="114" y="121"/>
      <point x="114" y="287" type="curve" smooth="yes"/>
      <point x="114" y="323"/>
      <point x="116" y="361"/>
      <point x="121" y="397" type="curve" smooth="yes"/>
      <point x="143" y="562"/>
      <point x="205" y="684"/>
      <point x="299" y="684" type="curve" smooth="yes"/>
      <point x="381" y="684"/>
      <point x="438" y="589"/>
      <point x="438" y="425" type="curve" smooth="yes"/>
      <point x="438" y="387"/>
      <point x="436" y="350"/>
      <point x="431" y="314" type="curve" smooth="yes"/>
      <point x="409" y="148"/>
      <point x="346" y="26"/>
    </contour>
    <contour>
      <point x="371" y="-181" type="curve" smooth="yes"/>
      <point x="390" y="-181"/>
      <point x="412" y="-179"/>
      <point x="434" y="-173" type="curve"/>
      <point x="448" y="-84" type="line"/>
      <point x="420" y="-97"/>
      <point x="390" y="-103"/>
      <point x="361" y="-103" type="curve" smooth="yes"/>
      <point x="304" y="-103"/>
      <point x="261" y="-69"/>
      <point x="261" y="7" type="curve" smooth="yes"/>
      <point x="261" y="8"/>
      <point x="261" y="8"/>
      <point x="261" y="9" type="curve"/>
      <point x="231" y="17" type="line"/>
      <point x="230" y="9"/>
      <point x="230" y="2"/>
      <point x="230" y="-5" type="curve" smooth="yes"/>
      <point x="230" y="-112"/>
      <point x="280" y="-181"/>
    </contour>
  </outline>
</glyph>
<glyph name="V" format="2">
  <advance width="453"/>
  <unicode hex="0056"/>
  <outline>
    <contour>
      <point x="226" y="46" type="line"/>
      <point x="167" y="668" type="line"/>
      <point x="168" y="675"/>
      <point x="195" y="679"/>
      <point x="217" y="679" type="curve" smooth="yes"/>
      <point x="228" y="679" type="line"/>
      <point x="232" y="710" type="line"/>
      <point x="51" y="710" type="line"/>
      <point x="48" y="679" type="line"/>
      <point x="51" y="679" type="line"/>
      <point x="69" y="679"/>
      <point x="85" y="674"/>
      <point x="87" y="648" type="curve" smooth="yes"/>
      <point x="154" y="0" type="line"/>
      <point x="220" y="0" type="line"/>
      <point x="436" y="620" type="line" smooth="yes"/>
      <point x="450" y="663"/>
      <point x="471" y="679"/>
      <point x="492" y="679" type="curve"/>
      <point x="497" y="679" type="line"/>
      <point x="500" y="710" type="line"/>
      <point x="364" y="710" type="line"/>
      <point x="360" y="679" type="line"/>
      <point x="378" y="679" type="line" smooth="yes"/>
      <point x="411" y="679"/>
      <point x="416" y="668"/>
      <point x="416" y="655" type="curve"/>
      <point x="210" y="47" type="line"/>
    </contour>
  </outline>
</glyph>
<glyph name="b" format="2">
  <advance width="425"/>
  <unicode hex="0062"/>
  <outline>
    <contour>
      <point x="194" y="-10" type="curve" smooth="yes"/>
      <point x="335" y="-10"/>
      <point x="406" y="174"/>
      <point x="406" y="329" type="curve" smooth="yes"/>
      <point x="406" y="448"/>
      <point x="357" y="528"/>
      <point x="288" y="528" type="curve" smooth="yes"/>
      <point x="210" y="528"/>
      <point x="168" y="458"/>
      <point x="125" y="306" type="curve"/>
      <point x="136" y="284" type="line"/>
      <point x="175" y="411"/>
      <point x="206" y="485"/>
      <point x="262" y="485" type="curve" smooth="yes"/>
      <point x="301" y="485"/>
      <point x="323" y="427"/>
      <point x="323" y="342" type="curve" smooth="yes"/>
      <point x="323" y="197"/>
      <point x="278" y="23"/>
      <point x="192" y="23" type="curve" smooth="yes"/>
      <point x="143" y="23"/>
      <point x="107" y="59"/>
      <point x="79" y="125" type="curve"/>
      <point x="83" y="91"/>
      <point x="94" y="58"/>
      <point x="114" y="28" type="curve"/>
      <point x="203" y="750" type="line"/>
      <point x="70" y="750" type="line"/>
      <point x="66" y="720" type="line"/>
      <point x="74" y="718" type="line" smooth="yes"/>
      <point x="104" y="709"/>
      <point x="118" y="702"/>
      <point x="115" y="673" type="curve" smooth="yes"/>
      <point x="39" y="61" type="line"/>
      <point x="72" y="20"/>
      <point x="131" y="-10"/>
    </contour>
  </outline>
</glyph>
<glyph name="c" format="2">
  <advance width="356"/>
  <unicode hex="0063"/>
  <anchor x="192" y="518" name="top"/>
  <anchor x="201" y="0" name="bottom"/>
  <outline>
    <contour>
      <point x="236" y="528" type="curve" smooth="yes"/>
      <point x="111" y="528"/>
      <point x="24" y="396"/>
      <point x="24" y="226" type="curve" smooth="yes"/>
      <point x="24" y="70"/>
      <point x="96" y="-10"/>
      <point x="182" y="-10" type="curve" smooth="yes"/>
      <point x="249" y="-10"/>
      <point x="301" y="33"/>
      <point x="332" y="134" type="curve"/>
      <point x="310" y="154" type="line"/>
      <point x="294" y="97"/>
      <point x="260" y="28"/>
      <point x="197" y="28" type="curve" smooth="yes"/>
      <point x="141" y="28"/>
      <point x="107" y="94"/>
      <point x="107" y="216" type="curve" smooth="yes"/>
      <point x="107" y="371"/>
      <point x="159" y="495"/>
      <point x="238" y="495" type="curve" smooth="yes"/>
      <point x="260" y="495"/>
      <point x="287" y="484"/>
      <point x="300" y="446" type="curve"/>
      <point x="308" y="466"/>
      <point x="302" y="479"/>
      <point x="288" y="484" type="curve"/>
      <point x="274" y="370" type="line"/>
      <point x="340" y="370" type="line"/>
      <point x="352" y="469" type="line"/>
      <point x="339" y="485"/>
      <point x="302" y="528"/>
    </contour>
  </outline>
</glyph>
<glyph name="f" format="2">
  <advance width="255"/>
  <unicode hex="0066"/>
  <outline>
    <contour>
      <point x="38" y="518" type="line"/>
      <point x="34" y="486" type="line"/>
      <point x="263" y="486" type="line"/>
      <point x="268" y="518" type="line"/>
    </contour>
    <contour>
      <point x="264" y="725" type="curve" smooth="yes"/>
      <point x="288" y="725"/>
      <point x="307" y="713"/>
      <point x="322" y="696" type="curve"/>
      <point x="328" y="738" type="line"/>
      <point x="308" y="752"/>
      <point x="286" y="758"/>
      <point x="263" y="758" type="curve" smooth="yes"/>
      <point x="182" y="758"/>
      <point x="116" y="695"/>
      <point x="105" y="584" type="curve" smooth="yes"/>
      <point x="25" y="-223" type="line"/>
      <point x="90" y="-223" type="line"/>
      <point x="185" y="585" type="line" smooth="yes"/>
      <point x="195" y="682"/>
      <point x="218" y="725"/>
    </contour>
  </outline>
</glyph>
<glyph name="n" format="2">
  <advance width="431"/>
  <unicode hex="006E"/>
  <anchor x="209" y="518" name="top"/>
  <anchor x="216" y="0" name="bottom"/>
  <outline>
    <contour>
      <point x="37" y="0" type="line"/>
      <point x="92" y="442" type="line" smooth="yes"/>
      <point x="95" y="470"/>
      <point x="81" y="477"/>
      <point x="51" y="486" type="curve" smooth="yes"/>
      <point x="44" y="488" type="line"/>
      <point x="47" y="518" type="line"/>
      <point x="175" y="518" type="line"/>
      <point x="155" y="351" type="line"/>
      <point x="159" y="342" type="line"/>
      <point x="116" y="0" type="line"/>
    </contour>
    <contour>
      <point x="345" y="97" type="line" smooth="yes"/>
      <point x="343" y="85"/>
      <point x="342" y="74"/>
      <point x="342" y="66" type="curve" smooth="yes"/>
      <point x="342" y="41"/>
      <point x="349" y="31"/>
      <point x="365" y="31" type="curve" smooth="yes"/>
      <point x="384" y="31"/>
      <point x="403" y="49"/>
      <point x="415" y="60" type="curve"/>
      <point x="409" y="28" type="line"/>
      <point x="395" y="10"/>
      <point x="368" y="-10"/>
      <point x="338" y="-10" type="curve" smooth="yes"/>
      <point x="295" y="-10"/>
      <point x="266" y="20"/>
      <point x="266" y="84" type="curve" smooth="yes"/>
      <point x="266" y="96"/>
      <point x="268" y="109"/>
      <point x="270" y="124" type="curve" smooth="yes"/>
      <point x="298" y="356" type="line" smooth="yes"/>
      <point x="301" y="377"/>
      <point x="303" y="403"/>
      <point x="303" y="422" type="curve" smooth="yes"/>
      <point x="303" y="457"/>
      <point x="294" y="485"/>
      <point x="264" y="485" type="curve" smooth="yes"/>
      <point x="219" y="485"/>
      <point x="187" y="420"/>
      <point x="147" y="281" type="curve"/>
      <point x="135" y="308" type="line"/>
      <point x="178" y="454"/>
      <point x="222" y="528"/>
      <point x="291" y="528" type="curve" smooth="yes"/>
      <point x="351" y="528"/>
      <point x="382" y="478"/>
      <point x="382" y="408" type="curve" smooth="yes"/>
      <point x="382" y="388"/>
      <point x="379" y="368"/>
      <point x="376" y="349" type="curve" smooth="yes"/>
    </contour>
  </outline>
</glyph>
<glyph name="r" format="2">
  <advance width="286"/>
  <unicode hex="0072"/>
  <anchor x="149" y="518" name="top"/>
  <anchor x="97" y="0" name="bottom"/>
  <outline>
    <contour>
      <point x="37" y="0" type="line"/>
      <point x="116" y="0" type="line"/>
      <point x="160" y="357" type="line"/>
      <point x="155" y="357" type="line"/>
      <point x="175" y="518" type="line"/>
      <point x="47" y="518" type="line"/>
      <point x="44" y="488" type="line"/>
      <point x="51" y="486" type="line" smooth="yes"/>
      <point x="81" y="477"/>
      <point x="95" y="470"/>
      <point x="92" y="442" type="curve" smooth="yes"/>
    </contour>
    <contour>
      <point x="296" y="521" type="line"/>
      <point x="290" y="525"/>
      <point x="283" y="528"/>
      <point x="270" y="528" type="curve" smooth="yes"/>
      <point x="223" y="528"/>
      <point x="176" y="462"/>
      <point x="144" y="328" type="curve"/>
      <point x="150" y="299" type="line"/>
      <point x="179" y="420"/>
      <point x="212" y="447"/>
      <point x="245" y="447" type="curve" smooth="yes"/>
      <point x="262" y="447"/>
      <point x="273" y="443"/>
      <point x="284" y="436" type="curve"/>
    </contour>
  </outline>
</glyph>
<glyph name="w" format="2">
  <advance width="570"/>
  <unicode hex="0077"/>
  <anchor x="288" y="518" name="top"/>
  <outline>
    <contour>
      <point x="287" y="518" type="line"/>
      <point x="279" y="351"/>
      <point x="221" y="170"/>
      <point x="158" y="22" type="curve"/>
      <point x="172" y="19" type="line"/>
      <point x="141" y="518" type="line"/>
      <point x="18" y="518" type="line"/>
      <point x="15" y="488" type="line"/>
      <point x="22" y="486" type="line" smooth="yes"/>
      <point x="54" y="477"/>
      <point x="67" y="468"/>
      <point x="70" y="424" type="curve" smooth="yes"/>
      <point x="102" y="0" type="line"/>
      <point x="173" y="0" type="line"/>
      <point x="224" y="106"/>
      <point x="273" y="246"/>
      <point x="301" y="410" type="curve"/>
      <point x="290" y="411" type="line"/>
      <point x="315" y="0" type="line"/>
      <point x="382" y="0" type="line"/>
      <point x="474" y="142"/>
      <point x="554" y="355"/>
      <point x="566" y="518" type="curve"/>
      <point x="566" y="518" type="line"/>
      <point x="499" y="518" type="line"/>
      <point x="504" y="360"/>
      <point x="463" y="175"/>
      <point x="365" y="20" type="curve"/>
      <point x="383" y="14" type="line"/>
      <point x="355" y="518" type="line"/>
    </contour>
  </outline>
</glyph>
<glyph name="y" format="2">
  <advance width="368"/>
  <unicode hex="0079"/>
  <anchor x="201" y="518" name="top"/>
  <anchor x="209" y="-211" name="bottom"/>
  <outline>
    <contour>
      <point x="136" y="-51" type="line"/>
      <point x="67" y="424" type="line" smooth="yes"/>
      <point x="61" y="468"/>
      <point x="50" y="477"/>
      <point x="19" y="486" type="curve" smooth="yes"/>
      <point x="12" y="488" type="line"/>
      <point x="15" y="518" type="line"/>
      <point x="133" y="518" type="line"/>
      <point x="195" y="34" type="line"/>
      <point x="165" y="-7" type="line"/>
    </contour>
    <contour>
      <point x="184" y="39" type="line"/>
      <point x="254" y="186"/>
      <point x="303" y="374"/>
      <point x="294" y="518" type="curve"/>
      <point x="360" y="518" type="line"/>
      <point x="360" y="518" type="line"/>
      <point x="350" y="342"/>
      <point x="263" y="140"/>
      <point x="182" y="-13" type="curve" smooth="yes"/>
      <point x="97" y="-178"/>
      <point x="47" y="-232"/>
      <point x="-6" y="-232" type="curve" smooth="yes"/>
      <point x="-41" y="-232"/>
      <point x="-55" y="-218"/>
      <point x="-59" y="-214" type="curve"/>
      <point x="-47" y="-127" type="line"/>
      <point x="-42" y="-132"/>
      <point x="-20" y="-148"/>
      <point x="15" y="-148" type="curve" smooth="yes"/>
      <point x="64" y="-148"/>
      <point x="102" y="-117"/>
      <point x="150" y="-22" type="curve"/>
    </contour>
  </outline>
</glyph>
<glyph name="braceleft" format="2">
  <advance width="229"/>
  <unicode hex="007B"/>
  <outline>
    <contour>
      <point x="170" y="238" type="curve" smooth="yes"/>
      <point x="170" y="269"/>
      <point x="157" y="282"/>
      <point x="81" y="313" type="curve"/>
      <point x="82" y="316" type="line"/>
      <point x="175" y="338"/>
      <point x="185" y="347"/>
      <point x="185" y="385" type="curve" smooth="yes"/>
      <point x="185" y="432"/>
      <point x="157" y="515"/>
      <point x="157" y="588" type="curve" smooth="yes"/>
      <point x="157" y="675"/>
      <point x="192" y="719"/>
      <point x="276" y="722" type="curve" smooth="yes"/>
      <point x="277" y="722"/>
      <point x="278" y="722"/>
      <point x="278" y="722" type="curve"/>
      <point x="276" y="749" type="line"/>
      <point x="273" y="749"/>
      <point x="271" y="749"/>
      <point x="269" y="749" type="curve" smooth="yes"/>
      <point x="154" y="750"/>
      <point x="97" y="691"/>
      <point x="97" y="596" type="curve" smooth="yes"/>
      <point x="97" y="521"/>
      <point x="129" y="434"/>
      <point x="152" y="345" type="curve"/>
      <point x="163" y="373" type="line"/>
      <point x="48" y="332" type="line"/>
      <point x="44" y="306" type="line"/>
      <point x="152" y="239" type="line"/>
      <point x="147" y="267" type="line"/>
      <point x="92" y="171"/>
      <point x="25" y="85"/>
      <point x="25" y="1" type="curve" smooth="yes"/>
      <point x="25" y="-102"/>
      <point x="92" y="-140"/>
      <point x="176" y="-146" type="curve"/>
      <point x="178" y="-146"/>
      <point x="179" y="-146"/>
      <point x="181" y="-146" type="curve"/>
      <point x="186" y="-119" type="line"/>
      <point x="186" y="-119" type="line"/>
      <point x="114" y="-109"/>
      <point x="83" y="-77"/>
      <point x="83" y="-7" type="curve" smooth="yes"/>
      <point x="83" y="84"/>
      <point x="170" y="194"/>
    </contour>
  </outline>
</glyph>
<glyph name="currency" format="2">
  <advance width="393"/>
  <unicode hex="00A4"/>
  <outline>
    <contour>
      <point x="41" y="131" type="line"/>
      <point x="123" y="238" type="line"/>
      <point x="98" y="266" type="line"/>
      <point x="19" y="164" type="line"/>
    </contour>
    <contour>
      <point x="52" y="588" type="line"/>
      <point x="110" y="492" type="line"/>
      <point x="139" y="515" type="line"/>
      <point x="78" y="617" type="line"/>
    </contour>
    <contour>
      <point x="197" y="219" type="curve" smooth="yes"/>
      <point x="137" y="219"/>
      <point x="99" y="283"/>
      <point x="99" y="367" type="curve" smooth="yes"/>
      <point x="99" y="470"/>
      <point x="141" y="528"/>
      <point x="206" y="528" type="curve" smooth="yes"/>
      <point x="268" y="528"/>
      <point x="304" y="464"/>
      <point x="304" y="380" type="curve" smooth="yes"/>
      <point x="304" y="277"/>
      <point x="262" y="219"/>
    </contour>
    <contour>
      <point x="197" y="178" type="curve"/>
      <point x="280" y="178"/>
      <point x="342" y="270"/>
      <point x="342" y="380" type="curve" smooth="yes"/>
      <point x="342" y="486"/>
      <point x="289" y="569"/>
      <point x="207" y="569" type="curve" smooth="yes"/>
      <point x="124" y="569"/>
      <point x="63" y="477"/>
      <point x="63" y="367" type="curve" smooth="yes"/>
      <point x="63" y="261"/>
      <point x="115" y="178"/>
    </contour>
    <contour>
      <point x="330" y="130" type="line"/>
      <point x="355" y="160" type="line"/>
      <point x="300" y="250" type="line"/>
      <point x="274" y="222" type="line"/>
    </contour>
    <contour>
      <point x="385" y="585" type="line"/>
      <point x="363" y="617" type="line"/>
      <point x="284" y="516" type="line"/>
      <point x="304" y="481" type="line"/>
    </contour>
  </outline>
</glyph>
<glyph name="yen" format="2">
  <advance width="393"/>
  <unicode hex="00A5"/>
  <outline>
    <contour>
      <point x="34" y="216" type="line"/>
      <point x="29" y="183" type="line"/>
      <point x="337" y="183" type="line"/>
      <point x="342" y="216" type="line"/>
    </contour>
    <contour>
      <point x="49" y="346" type="line"/>
      <point x="45" y="313" type="line"/>
      <point x="353" y="313" type="line"/>
      <point x="358" y="346" type="line"/>
    </contour>
    <contour>
      <point x="166" y="364" type="line"/>
      <point x="128" y="66" type="line" smooth="yes"/>
      <point x="125" y="37"/>
      <point x="99" y="31"/>
      <point x="72" y="31" type="curve" smooth="yes"/>
      <point x="60" y="31" type="line"/>
      <point x="57" y="0" type="line"/>
      <point x="265" y="0" type="line"/>
      <point x="269" y="31" type="line"/>
      <point x="258" y="31" type="line" smooth="yes"/>
      <point x="231" y="31"/>
      <point x="207" y="37"/>
      <point x="210" y="66" type="curve" smooth="yes"/>
      <point x="247" y="365" type="line"/>
    </contour>
    <contour>
      <point x="231" y="308" type="line"/>
      <point x="370" y="614" type="line" smooth="yes"/>
      <point x="390" y="661"/>
      <point x="407" y="679"/>
      <point x="426" y="679" type="curve" smooth="yes"/>
      <point x="431" y="679" type="line"/>
      <point x="436" y="710" type="line"/>
      <point x="305" y="710" type="line"/>
      <point x="300" y="679" type="line"/>
      <point x="319" y="679" type="line" smooth="yes"/>
      <point x="351" y="679"/>
      <point x="358" y="669"/>
      <point x="357" y="657" type="curve"/>
      <point x="219" y="342" type="line"/>
      <point x="237" y="342" type="line"/>
      <point x="164" y="666" type="line"/>
      <point x="165" y="675"/>
      <point x="192" y="679"/>
      <point x="213" y="679" type="curve" smooth="yes"/>
      <point x="224" y="679" type="line"/>
      <point x="228" y="710" type="line"/>
      <point x="54" y="710" type="line"/>
      <point x="49" y="679" type="line"/>
      <point x="52" y="679" type="line" smooth="yes"/>
      <point x="69" y="679"/>
      <point x="81" y="676"/>
      <point x="86" y="650" type="curve" smooth="yes"/>
      <point x="170" y="303" type="line"/>
    </contour>
  </outline>
</glyph>
<glyph name="section" format="2">
  <advance width="447"/>
  <unicode hex="00A7"/>
  <outline>
    <contour>
      <point x="162" y="-236" type="curve" smooth="yes"/>
      <point x="264" y="-236"/>
      <point x="331" y="-156"/>
      <point x="331" y="-47" type="curve" smooth="yes"/>
      <point x="331" y="44"/>
      <point x="271" y="99"/>
      <point x="209" y="156" type="curve" smooth="yes"/>
      <point x="151" y="211"/>
      <point x="96" y="254"/>
      <point x="96" y="322" type="curve" smooth="yes"/>
      <point x="96" y="381"/>
      <point x="126" y="408"/>
      <point x="181" y="411" type="curve"/>
      <point x="165" y="434" type="line"/>
      <point x="89" y="430"/>
      <point x="34" y="381"/>
      <point x="33" y="293" type="curve" smooth="yes"/>
      <point x="33" y="204"/>
      <point x="92" y="147"/>
      <point x="153" y="93" type="curve" smooth="yes"/>
      <point x="215" y="36"/>
      <point x="265" y="-3"/>
      <point x="265" y="-77" type="curve" smooth="yes"/>
      <point x="265" y="-151"/>
      <point x="233" y="-204"/>
      <point x="165" y="-204" type="curve" smooth="yes"/>
      <point x="102" y="-204"/>
      <point x="68" y="-169"/>
      <point x="51" y="-125" type="curve"/>
      <point x="40" y="-156"/>
      <point x="45" y="-176"/>
      <point x="70" y="-191" type="curve"/>
      <point x="89" y="-50" type="line"/>
      <point x="14" y="-50" type="line"/>
      <point x="0" y="-148" type="line"/>
      <point x="27" y="-189"/>
      <point x="81" y="-236"/>
    </contour>
    <contour>
      <point x="260" y="62" type="line"/>
      <point x="347" y="66"/>
      <point x="407" y="116"/>
      <point x="407" y="206" type="curve" smooth="yes"/>
      <point x="407" y="297"/>
      <point x="344" y="347"/>
      <point x="280" y="409" type="curve" smooth="yes"/>
      <point x="225" y="463"/>
      <point x="175" y="498"/>
      <point x="175" y="573" type="curve" smooth="yes"/>
      <point x="175" y="640"/>
      <point x="205" y="689"/>
      <point x="270" y="689" type="curve" smooth="yes"/>
      <point x="320" y="689"/>
      <point x="354" y="666"/>
      <point x="368" y="603" type="curve"/>
      <point x="376" y="638"/>
      <point x="352" y="674"/>
      <point x="345" y="674" type="curve"/>
      <point x="330" y="562" type="line"/>
      <point x="401" y="562" type="line"/>
      <point x="412" y="652" type="line"/>
      <point x="391" y="681"/>
      <point x="348" y="720"/>
      <point x="270" y="720" type="curve" smooth="yes"/>
      <point x="169" y="720"/>
      <point x="110" y="650"/>
      <point x="110" y="550" type="curve" smooth="yes"/>
      <point x="110" y="458"/>
      <point x="166" y="401"/>
      <point x="223" y="347" type="curve" smooth="yes"/>
      <point x="282" y="289"/>
      <point x="341" y="243"/>
      <point x="341" y="185" type="curve" smooth="yes"/>
      <point x="341" y="118"/>
      <point x="310" y="93"/>
      <point x="251" y="88" type="curve"/>
    </contour>
  </outline>
</glyph>
<glyph name="registered" format="2">
  <advance width="593"/>
  <unicode hex="00AE"/>
  <outline>
    <contour>
      <point x="299" y="-29" type="curve" smooth="yes"/>
      <point x="147" y="-29"/>
      <point x="30" y="138"/>
      <point x="30" y="355" type="curve" smooth="yes"/>
      <point x="30" y="572"/>
      <point x="147" y="739"/>
      <point x="299" y="739" type="curve" smooth="yes"/>
      <point x="453" y="739"/>
      <point x="569" y="572"/>
      <point x="569" y="355" type="curve" smooth="yes"/>
      <point x="569" y="138"/>
      <point x="453" y="-29"/>
    </contour>
    <contour>
      <point x="177" y="153" type="line"/>
      <point x="304" y="153" type="line"/>
      <point x="304" y="180" type="line"/>
      <point x="301" y="180" type="line" smooth="yes"/>
      <point x="289" y="180"/>
      <point x="273" y="182"/>
      <point x="273" y="186" type="curve" smooth="yes"/>
      <point x="273" y="321" type="line"/>
      <point x="300" y="321" type="line" smooth="yes"/>
      <point x="370" y="321"/>
      <point x="418" y="368"/>
      <point x="418" y="443" type="curve" smooth="yes"/>
      <point x="418" y="515"/>
      <point x="374" y="557"/>
      <point x="303" y="557" type="curve" smooth="yes"/>
      <point x="177" y="557" type="line"/>
      <point x="177" y="529" type="line"/>
      <point x="181" y="529" type="line" smooth="yes"/>
      <point x="199" y="529"/>
      <point x="213" y="525"/>
      <point x="213" y="509" type="curve" smooth="yes"/>
      <point x="213" y="200" type="line" smooth="yes"/>
      <point x="213" y="184"/>
      <point x="199" y="180"/>
      <point x="181" y="180" type="curve" smooth="yes"/>
      <point x="177" y="180" type="line"/>
    </contour>
    <contour>
      <point x="300" y="526" type="line" smooth="yes"/>
      <point x="337" y="526"/>
      <point x="357" y="502"/>
      <point x="357" y="443" type="curve" smooth="yes"/>
      <point x="357" y="381"/>
      <point x="337" y="351"/>
      <point x="297" y="351" type="curve" smooth="yes"/>
      <point x="273" y="351" type="line"/>
      <point x="273" y="526" type="line"/>
    </contour>
    <contour>
      <point x="299" y="5" type="curve" smooth="yes"/>
      <point x="438" y="5"/>
      <point x="538" y="159"/>
      <point x="538" y="355" type="curve" smooth="yes"/>
      <point x="538" y="551"/>
      <point x="438" y="705"/>
      <point x="299" y="705" type="curve" smooth="yes"/>
      <point x="161" y="705"/>
      <point x="61" y="551"/>
      <point x="61" y="355" type="curve" smooth="yes"/>
      <point x="61" y="159"/>
      <point x="161" y="5"/>
    </contour>
    <contour>
      <point x="298" y="335" type="line"/>
      <point x="356" y="152" type="line"/>
      <point x="437" y="152" type="line"/>
      <point x="437" y="180" type="line"/>
      <point x="432" y="180" type="line" smooth="yes"/>
      <point x="418" y="180"/>
      <point x="410" y="183"/>
      <point x="406" y="196" type="curve" smooth="yes"/>
      <point x="353" y="346" type="line"/>
    </contour>
  </outline>
</glyph>
<glyph name="acute" format="2">
  <advance width="351"/>
  <unicode hex="00B4"/>
  <anchor x="134" y="527" name="_top"/>
  <outline>
    <contour>
      <point x="177" y="706" type="curve" smooth="yes"/>
      <point x="134" y="589" type="line"/>
      <point x="132" y="575" type="line"/>
      <point x="150" y="575" type="line"/>
      <point x="221" y="656" type="line" smooth="yes"/>
      <point x="245" y="683"/>
      <point x="259" y="701"/>
      <point x="259" y="730" type="curve" smooth="yes"/>
      <point x="259" y="753"/>
      <point x="247" y="769"/>
      <point x="228" y="769" type="curve" smooth="yes"/>
      <point x="205" y="769"/>
      <point x="193" y="751"/>
    </contour>
  </outline>
</glyph>
<glyph name="paragraph" format="2">
  <advance width="407"/>
  <unicode hex="00B6"/>
  <outline>
    <contour>
      <point x="423" y="710" type="line"/>
      <point x="419" y="679" type="line"/>
      <point x="414" y="679" type="line"/>
      <point x="381" y="679"/>
      <point x="362" y="674"/>
      <point x="358" y="643" type="curve" smooth="yes"/>
      <point x="278" y="0" type="line"/>
      <point x="244" y="0" type="line"/>
      <point x="332" y="710" type="line"/>
    </contour>
    <contour>
      <point x="350" y="710" type="line"/>
      <point x="346" y="677" type="line"/>
      <point x="238" y="677" type="line"/>
      <point x="243" y="710" type="line"/>
    </contour>
    <contour>
      <point x="176" y="0" type="line"/>
      <point x="135" y="0" type="line"/>
      <point x="176" y="342" type="line"/>
      <point x="173" y="342" type="line" smooth="yes"/>
      <point x="97" y="342"/>
      <point x="49" y="408"/>
      <point x="49" y="507" type="curve" smooth="yes"/>
      <point x="49" y="636"/>
      <point x="112" y="710"/>
      <point x="227" y="710" type="curve" smooth="yes"/>
      <point x="264" y="710" type="line"/>
    </contour>
  </outline>
</glyph>
<glyph name="ordmasculine" format="2">
  <advance width="327"/>
  <unicode hex="00BA"/>
  <outline>
    <contour>
      <point x="174" y="310" type="curve" smooth="yes"/>
      <point x="270" y="310"/>
      <point x="334" y="416"/>
      <point x="334" y="535" type="curve" smooth="yes"/>
      <point x="334" y="645"/>
      <point x="282" y="720"/>
      <point x="202" y="720" type="curve" smooth="yes"/>
      <point x="104" y="720"/>
      <point x="42" y="613"/>
      <point x="42" y="494" type="curve" smooth="yes"/>
      <point x="42" y="386"/>
      <point x="94" y="310"/>
    </contour>
    <contour>
      <point x="202" y="691" type="curve" smooth="yes"/>
      <point x="239" y="691"/>
      <point x="261" y="645"/>
      <point x="261" y="556" type="curve" smooth="yes"/>
      <point x="261" y="532"/>
      <point x="260" y="507"/>
      <point x="256" y="482" type="curve" smooth="yes"/>
      <point x="245" y="405"/>
      <point x="220" y="339"/>
      <point x="173" y="339" type="curve" smooth="yes"/>
      <point x="136" y="339"/>
      <point x="115" y="386"/>
      <point x="115" y="473" type="curve" smooth="yes"/>
      <point x="115" y="500"/>
      <point x="117" y="529"/>
      <point x="121" y="556" type="curve" smooth="yes"/>
      <point x="132" y="631"/>
      <point x="158" y="691"/>
    </contour>
  </outline>
</glyph>
<glyph name="oslash" format="2">
  <advance width="408"/>
  <unicode hex="00F8"/>
  <anchor x="203" y="518" name="top"/>
  <outline>
    <contour>
      <point x="188" y="-10" type="curve" smooth="yes"/>
      <point x="310" y="-10"/>
      <point x="389" y="134"/>
      <point x="389" y="286" type="curve" smooth="yes"/>
      <point x="389" y="429"/>
      <point x="324" y="528"/>
      <point x="224" y="528" type="curve" smooth="yes"/>
      <point x="104" y="528"/>
      <point x="24" y="384"/>
      <point x="24" y="233" type="curve" smooth="yes"/>
      <point x="24" y="89"/>
      <point x="89" y="-10"/>
    </contour>
    <contour>
      <point x="-4" y="-10" type="line"/>
      <point x="33" y="-10" type="line"/>
      <point x="418" y="528" type="line"/>
      <point x="381" y="528" type="line"/>
    </contour>
    <contour>
      <point x="188" y="23" type="curve"/>
      <point x="134" y="23"/>
      <point x="104" y="85"/>
      <point x="104" y="205" type="curve" smooth="yes"/>
      <point x="104" y="246"/>
      <point x="108" y="291"/>
      <point x="116" y="332" type="curve" smooth="yes"/>
      <point x="132" y="422"/>
      <point x="167" y="495"/>
      <point x="226" y="495" type="curve"/>
      <point x="279" y="495"/>
      <point x="309" y="433"/>
      <point x="309" y="313" type="curve" smooth="yes"/>
      <point x="309" y="272"/>
      <point x="306" y="227"/>
      <point x="298" y="186" type="curve" smooth="yes"/>
      <point x="282" y="97"/>
      <point x="247" y="23"/>
    </contour>
  </outline>
</glyph>
<glyph name="thorn" format="2">
  <advance width="426"/>
  <unicode hex="00FE"/>
  <outline>
    <contour>
      <point x="-50" y="-223" type="line"/>
      <point x="141" y="-223" type="line"/>
      <point x="144" y="-193" type="line"/>
      <point x="136" y="-193" type="line" smooth="yes"/>
      <point x="130" y="-193"/>
      <point x="87" y="-191"/>
      <point x="87" y="-182" type="curve"/>
      <point x="203" y="750" type="line"/>
      <point x="70" y="750" type="line"/>
      <point x="66" y="720" type="line"/>
      <point x="77" y="717" type="line" smooth="yes"/>
      <point x="105" y="709"/>
      <point x="118" y="702"/>
      <point x="115" y="673" type="curve" smooth="yes"/>
      <point x="12" y="-159" type="line" smooth="yes"/>
      <point x="9" y="-183"/>
      <point x="-12" y="-193"/>
      <point x="-45" y="-193" type="curve"/>
      <point x="-47" y="-193" type="line"/>
    </contour>
    <contour>
      <point x="196" y="-10" type="curve" smooth="yes"/>
      <point x="336" y="-10"/>
      <point x="405" y="174"/>
      <point x="405" y="329" type="curve" smooth="yes"/>
      <point x="405" y="448"/>
      <point x="356" y="528"/>
      <point x="288" y="528" type="curve" smooth="yes"/>
      <point x="210" y="528"/>
      <point x="168" y="458"/>
      <point x="125" y="306" type="curve"/>
      <point x="136" y="284" type="line"/>
      <point x="175" y="411"/>
      <point x="205" y="485"/>
      <point x="261" y="485" type="curve" smooth="yes"/>
      <point x="301" y="485"/>
      <point x="323" y="427"/>
      <point x="323" y="342" type="curve" smooth="yes"/>
      <point x="323" y="197"/>
      <point x="278" y="23"/>
      <point x="195" y="23" type="curve" smooth="yes"/>
      <point x="152" y="23"/>
      <point x="114" y="58"/>
      <point x="90" y="127" type="curve"/>
      <point x="73" y="75" type="line"/>
      <point x="103" y="28"/>
      <point x="148" y="-10"/>
    </contour>
  </outline>
</glyph>
<glyph name="ibreve" format="2">
  <advance width="214"/>
  <unicode hex="012D"/>
  <outline>
    <contour>
      <point x="139" y="588" type="curve" smooth="yes"/>
      <point x="83" y="588"/>
      <point x="52" y="640"/>
      <point x="52" y="721" type="curve" smooth="yes"/>
      <point x="52" y="729"/>
      <point x="53" y="741"/>
      <point x="54" y="747" type="curve"/>
      <point x="77" y="747" type="line"/>
      <point x="78" y="692"/>
      <point x="94" y="657"/>
      <point x="144" y="657" type="curve" smooth="yes"/>
      <point x="191" y="657"/>
      <point x="211" y="686"/>
      <point x="222" y="747" type="curve"/>
      <point x="244" y="747" type="line"/>
      <point x="234" y="629"/>
      <point x="193" y="588"/>
    </contour>
    <component base="dotlessi"/>
  </outline>
</glyph>
<glyph name="iogonek" format="2">
  <advance width="214"/>
  <unicode hex="012F"/>
  <outline>
    <contour>
      <point x="174" y="32" type="line"/>
      <point x="79" y="-34"/>
      <point x="13" y="-81"/>
      <point x="13" y="-155" type="curve" smooth="yes"/>
      <point x="13" y="-207"/>
      <point x="45" y="-237"/>
      <point x="88" y="-237" type="curve" smooth="yes"/>
      <point x="126" y="-237"/>
      <point x="151" y="-217"/>
      <point x="169" y="-191" type="curve"/>
      <point x="158" y="-170" type="line"/>
      <point x="147" y="-187"/>
      <point x="133" y="-200"/>
      <point x="114" y="-200" type="curve" smooth="yes"/>
      <point x="96" y="-200"/>
      <point x="81" y="-184"/>
      <point x="81" y="-151" type="curve" smooth="yes"/>
      <point x="81" y="-100"/>
      <point x="103" y="-55"/>
      <point x="182" y="16" type="curve"/>
    </contour>
    <component base="i"/>
  </outline>
</glyph>
<glyph name="lslash" format="2">
  <advance width="216"/>
  <unicode hex="0142"/>
  <outline>
    <contour>
      <point x="4" y="247" type="line"/>
      <point x="237" y="483" type="line"/>
      <point x="244" y="528" type="line"/>
      <point x="11" y="292" type="line"/>
    </contour>
    <component base="l" xOffset="4"/>
  </outline>
</glyph>
<glyph name="Schwa" format="2">
  <advance width="497"/>
  <unicode hex="018F"/>
  <outline>
    <contour>
      <point x="219" y="-10" type="curve" smooth="yes"/>
      <point x="358" y="-10"/>
      <point x="479" y="167"/>
      <point x="479" y="412" type="curve" smooth="yes"/>
      <point x="479" y="613"/>
      <point x="390" y="720"/>
      <point x="265" y="720" type="curve" smooth="yes"/>
      <point x="170" y="720"/>
      <point x="102" y="657"/>
      <point x="59" y="569" type="curve"/>
      <point x="80" y="545" type="line"/>
      <point x="115" y="617"/>
      <point x="173" y="684"/>
      <point x="257" y="684" type="curve" smooth="yes"/>
      <point x="337" y="684"/>
      <point x="392" y="611"/>
      <point x="392" y="428" type="curve" smooth="yes"/>
      <point x="392" y="181"/>
      <point x="317" y="26"/>
      <point x="221" y="26" type="curve" smooth="yes"/>
      <point x="156" y="26"/>
      <point x="109" y="81"/>
      <point x="109" y="242" type="curve" smooth="yes"/>
      <point x="109" y="275"/>
      <point x="112" y="308"/>
      <point x="118" y="343" type="curve"/>
      <point x="94" y="330" type="line"/>
      <point x="428" y="330" type="line"/>
      <point x="435" y="367" type="line"/>
      <point x="34" y="367" type="line"/>
      <point x="29" y="331"/>
      <point x="26" y="306"/>
      <point x="26" y="266" type="curve" smooth="yes"/>
      <point x="26" y="97"/>
      <point x="91" y="-10"/>
    </contour>
  </outline>
</glyph>
<glyph name="Ohorn" format="2">
  <advance width="548"/>
  <unicode hex="01A0"/>
  <anchor x="258" y="742" name="top"/>
  <outline>
    <contour>
      <point x="253" y="26" type="curve" smooth="yes"/>
      <point x="171" y="26"/>
      <point x="114" y="121"/>
      <point x="114" y="287" type="curve" smooth="yes"/>
      <point x="114" y="323"/>
      <point x="116" y="361"/>
      <point x="121" y="397" type="curve" smooth="yes"/>
      <point x="143" y="562"/>
      <point x="205" y="684"/>
      <point x="299" y="684" type="curve" smooth="yes"/>
      <point x="381" y="684"/>
      <point x="438" y="589"/>
      <point x="438" y="425" type="curve" smooth="yes"/>
      <point x="438" y="387"/>
      <point x="436" y="350"/>
      <point x="431" y="314" type="curve" smooth="yes"/>
      <point x="409" y="148"/>
      <point x="346" y="26"/>
    </contour>
    <contour>
      <point x="252" y="-10" type="curve" smooth="yes"/>
      <point x="406" y="-10"/>
      <point x="526" y="164"/>
      <point x="526" y="388" type="curve" smooth="yes"/>
      <point x="526" y="544"/>
      <point x="464" y="649"/>
      <point x="374" y="690" type="curve"/>
      <point x="405" y="657" type="line"/>
      <point x="413" y="680" type="line"/>
      <point x="367" y="685" type="line"/>
      <point x="389" y="675"/>
      <point x="408" y="669"/>
      <point x="429" y="669" type="curve" smooth="yes"/>
      <point x="516" y="669"/>
      <point x="565" y="719"/>
      <point x="584" y="839" type="curve"/>
      <point x="522" y="839" type="line"/>
      <point x="509" y="759"/>
      <point x="487" y="702"/>
      <point x="427" y="702" type="curve" smooth="yes"/>
      <point x="381" y="702"/>
      <point x="354" y="720"/>
      <point x="300" y="720" type="curve" smooth="yes"/>
      <point x="145" y="720"/>
      <point x="26" y="546"/>
      <point x="26" y="322" type="curve" smooth="yes"/>
      <point x="26" y="124"/>
      <point x="124" y="-10"/>
    </contour>
  </outline>
</glyph>
<glyph name="Uhorn" format="2">
  <advance width="553"/>
  <unicode hex="01AF"/>
  <anchor x="247" y="663" name="top"/>
  <outline>
    <contour>
      <point x="246" y="-10" type="curve" smooth="yes"/>
      <point x="345" y="-10"/>
      <point x="416" y="63"/>
      <point x="438" y="238" type="curve" smooth="yes"/>
      <point x="487" y="636" type="line" smooth="yes"/>
      <point x="491" y="669"/>
      <point x="503" y="679"/>
      <point x="525" y="685" type="curve" smooth="yes"/>
      <point x="588" y="704"/>
      <point x="623" y="732"/>
      <point x="645" y="839" type="curve"/>
      <point x="583" y="839" type="line"/>
      <point x="567" y="742"/>
      <point x="552" y="710"/>
      <point x="460" y="710" type="curve" smooth="yes"/>
      <point x="400" y="710" type="line"/>
      <point x="396" y="679" type="line"/>
      <point x="410" y="679" type="line" smooth="yes"/>
      <point x="444" y="679"/>
      <point x="460" y="672"/>
      <point x="458" y="655" type="curve" smooth="yes"/>
      <point x="408" y="244" type="line" smooth="yes"/>
      <point x="391" y="102"/>
      <point x="339" y="42"/>
      <point x="265" y="42" type="curve" smooth="yes"/>
      <point x="188" y="42"/>
      <point x="149" y="99"/>
      <point x="149" y="198" type="curve" smooth="yes"/>
      <point x="149" y="223"/>
      <point x="150" y="251"/>
      <point x="155" y="290" type="curve" smooth="yes"/>
      <point x="201" y="669" type="line" smooth="yes"/>
      <point x="202" y="676"/>
      <point x="231" y="679"/>
      <point x="254" y="679" type="curve" smooth="yes"/>
      <point x="259" y="679" type="line"/>
      <point x="263" y="710" type="line"/>
      <point x="66" y="710" type="line"/>
      <point x="63" y="679" type="line"/>
      <point x="67" y="679" type="line" smooth="yes"/>
      <point x="93" y="679"/>
      <point x="119" y="673"/>
      <point x="116" y="648" type="curve" smooth="yes"/>
      <point x="73" y="297" type="line" smooth="yes"/>
      <point x="68" y="258"/>
      <point x="66" y="231"/>
      <point x="66" y="202" type="curve" smooth="yes"/>
      <point x="66" y="51"/>
      <point x="144" y="-10"/>
    </contour>
  </outline>
</glyph>
<glyph name="oogonek" format="2">
  <advance width="409"/>
  <unicode hex="01EB"/>
  <outline>
    <contour>
      <point x="185" y="-237" type="curve" smooth="yes"/>
      <point x="224" y="-237"/>
      <point x="249" y="-217"/>
      <point x="266" y="-191" type="curve"/>
      <point x="256" y="-170" type="line"/>
      <point x="245" y="-187"/>
      <point x="230" y="-200"/>
      <point x="212" y="-200" type="curve" smooth="yes"/>
      <point x="194" y="-200"/>
      <point x="179" y="-184"/>
      <point x="179" y="-151" type="curve" smooth="yes"/>
      <point x="179" y="-97"/>
      <point x="197" y="-52"/>
      <point x="282" y="21" type="curve" smooth="yes"/>
      <point x="349" y="78"/>
      <point x="389" y="178"/>
      <point x="389" y="286" type="curve" smooth="yes"/>
      <point x="389" y="429"/>
      <point x="325" y="528"/>
      <point x="224" y="528" type="curve" smooth="yes"/>
      <point x="104" y="528"/>
      <point x="24" y="384"/>
      <point x="24" y="233" type="curve" smooth="yes"/>
      <point x="24" y="89"/>
      <point x="89" y="-10"/>
      <point x="188" y="-10" type="curve" smooth="yes"/>
      <point x="208" y="-10"/>
      <point x="226" y="-6"/>
      <point x="243" y="1" type="curve"/>
      <point x="244" y="13" type="line"/>
      <point x="161" y="-41"/>
      <point x="111" y="-89"/>
      <point x="111" y="-155" type="curve" smooth="yes"/>
      <point x="111" y="-207"/>
      <point x="142" y="-237"/>
    </contour>
    <contour>
      <point x="187" y="23" type="curve"/>
      <point x="137" y="23"/>
      <point x="107" y="85"/>
      <point x="107" y="205" type="curve" smooth="yes"/>
      <point x="107" y="246"/>
      <point x="110" y="291"/>
      <point x="118" y="332" type="curve" smooth="yes"/>
      <point x="134" y="422"/>
      <point x="168" y="495"/>
      <point x="225" y="495" type="curve"/>
      <point x="277" y="495"/>
      <point x="307" y="433"/>
      <point x="307" y="313" type="curve" smooth="yes"/>
      <point x="307" y="272"/>
      <point x="304" y="227"/>
      <point x="296" y="186" type="curve" smooth="yes"/>
      <point x="280" y="97"/>
      <point x="246" y="23"/>
    </contour>
  </outline>
</glyph>
<glyph name="dotlessj" format="2">
  <advance width="210"/>
  <unicode hex="0237"/>
  <anchor x="133" y="518" name="top"/>
  <outline>
    <contour>
      <point x="31" y="-72" type="line" smooth="yes"/>
      <point x="19" y="-168"/>
      <point x="-1" y="-202"/>
      <point x="-43" y="-202" type="curve" smooth="yes"/>
      <point x="-64" y="-202"/>
      <point x="-81" y="-194"/>
      <point x="-93" y="-184" type="curve"/>
      <point x="-98" y="-216" type="line"/>
      <point x="-84" y="-225"/>
      <point x="-59" y="-236"/>
      <point x="-30" y="-236" type="curve" smooth="yes"/>
      <point x="45" y="-236"/>
      <point x="96" y="-192"/>
      <point x="114" y="-54" type="curve" smooth="yes"/>
      <point x="183" y="518" type="line"/>
      <point x="50" y="518" type="line"/>
      <point x="47" y="488" type="line"/>
      <point x="54" y="486" type="line" smooth="yes"/>
      <point x="84" y="477"/>
      <point x="98" y="470"/>
      <point x="95" y="442" type="curve" smooth="yes"/>
    </contour>
  </outline>
</glyph>
<glyph name="schwa" format="2">
  <advance width="355"/>
  <unicode hex="0259"/>
  <outline>
    <contour>
      <point x="181" y="528" type="curve" smooth="yes"/>
      <point x="122" y="528"/>
      <point x="71" y="496"/>
      <point x="39" y="437" type="curve"/>
      <point x="53" y="406" type="line"/>
      <point x="79" y="455"/>
      <point x="117" y="490"/>
      <point x="166" y="490" type="curve" smooth="yes"/>
      <point x="220" y="490"/>
      <point x="253" y="429"/>
      <point x="253" y="303" type="curve" smooth="yes"/>
      <point x="253" y="146"/>
      <point x="204" y="23"/>
      <point x="132" y="23" type="curve" smooth="yes"/>
      <point x="99" y="23"/>
      <point x="84" y="59"/>
      <point x="84" y="105" type="curve" smooth="yes"/>
      <point x="84" y="203"/>
      <point x="133" y="260"/>
      <point x="271" y="293" type="curve"/>
      <point x="276" y="323" type="line"/>
      <point x="84" y="279"/>
      <point x="16" y="219"/>
      <point x="16" y="111" type="curve" smooth="yes"/>
      <point x="16" y="50"/>
      <point x="55" y="-10"/>
      <point x="128" y="-10" type="curve" smooth="yes"/>
      <point x="251" y="-10"/>
      <point x="335" y="127"/>
      <point x="335" y="292" type="curve" smooth="yes"/>
      <point x="335" y="447"/>
      <point x="273" y="528"/>
    </contour>
  </outline>
</glyph>
<glyph name="ogonek" format="2">
  <advance width="422"/>
  <unicode hex="02DB"/>
  <anchor x="254" y="9" name="_right"/>
  <outline>
    <contour>
      <point x="318" y="32" type="line"/>
      <point x="223" y="-34"/>
      <point x="157" y="-81"/>
      <point x="157" y="-155" type="curve" smooth="yes"/>
      <point x="157" y="-207"/>
      <point x="188" y="-237"/>
      <point x="232" y="-237" type="curve" smooth="yes"/>
      <point x="270" y="-237"/>
      <point x="295" y="-217"/>
      <point x="313" y="-191" type="curve"/>
      <point x="302" y="-170" type="line"/>
      <point x="291" y="-187"/>
      <point x="277" y="-200"/>
      <point x="258" y="-200" type="curve" smooth="yes"/>
      <point x="240" y="-200"/>
      <point x="225" y="-184"/>
      <point x="225" y="-151" type="curve" smooth="yes"/>
      <point x="225" y="-100"/>
      <point x="247" y="-54"/>
      <point x="326" y="16" type="curve"/>
    </contour>
  </outline>
</glyph>
<glyph name="hungarumlaut" format="2">
  <advance width="351"/>
  <unicode hex="02DD"/>
  <anchor x="164" y="525" name="_top"/>
  <outline>
    <contour>
      <point x="143" y="703" type="curve" smooth="yes"/>
      <point x="116" y="589" type="line"/>
      <point x="115" y="575" type="line"/>
      <point x="133" y="575" type="line"/>
      <point x="192" y="665" type="line" smooth="yes"/>
      <point x="212" y="690"/>
      <point x="220" y="709"/>
      <point x="220" y="732" type="curve" smooth="yes"/>
      <point x="220" y="754"/>
      <point x="208" y="771"/>
      <point x="190" y="771" type="curve" smooth="yes"/>
      <point x="168" y="771"/>
      <point x="155" y="752"/>
    </contour>
    <contour>
      <point x="256" y="703" type="curve" smooth="yes"/>
      <point x="229" y="589" type="line"/>
      <point x="228" y="575" type="line"/>
      <point x="246" y="575" type="line"/>
      <point x="304" y="665" type="line" smooth="yes"/>
      <point x="325" y="690"/>
      <point x="334" y="709"/>
      <point x="334" y="732" type="curve" smooth="yes"/>
      <point x="334" y="754"/>
      <point x="321" y="771"/>
      <point x="303" y="771" type="curve" smooth="yes"/>
      <point x="281" y="771"/>
      <point x="269" y="752"/>
    </contour>
  </outline>
</glyph>
<glyph name="quoteright" format="2">
  <advance width="139"/>
  <unicode hex="2019"/>
  <outline>
    <contour>
      <point x="76" y="498" type="line"/>
      <point x="116" y="537"/>
      <point x="153" y="593"/>
      <point x="153" y="654" type="curve" smooth="yes"/>
      <point x="153" y="699"/>
      <point x="133" y="720"/>
      <point x="106" y="720" type="curve" smooth="yes"/>
      <point x="81" y="720"/>
      <point x="63" y="698"/>
      <point x="63" y="667" type="curve" smooth="yes"/>
      <point x="63" y="634"/>
      <point x="81" y="613"/>
      <point x="102" y="613" type="curve" smooth="yes"/>
      <point x="120" y="613"/>
      <point x="131" y="619"/>
      <point x="138" y="641" type="curve"/>
      <point x="128" y="639" type="line"/>
      <point x="118" y="591"/>
      <point x="90" y="562"/>
      <point x="49" y="529" type="curve"/>
    </contour>
  </outline>
</glyph>
<glyph name="guarani" format="2">
  <advance width="393"/>
  <unicode hex="20B2"/>
  <outline>
    <contour>
      <point x="242" y="790" type="line"/>
      <point x="230" y="686" type="line"/>
      <point x="228" y="675" type="line"/>
      <point x="149" y="37" type="line"/>
      <point x="147" y="26" type="line"/>
      <point x="129" y="-120" type="line"/>
      <point x="158" y="-120" type="line"/>
      <point x="176" y="25" type="line"/>
      <point x="176" y="36" type="line"/>
      <point x="256" y="677" type="line"/>
      <point x="257" y="684" type="line"/>
      <point x="271" y="790" type="line"/>
    </contour>
    <contour>
      <point x="190" y="9" type="curve" smooth="yes"/>
      <point x="249" y="9"/>
      <point x="303" y="46"/>
      <point x="328" y="83" type="curve"/>
      <point x="353" y="286" type="line" smooth="yes"/>
      <point x="357" y="321"/>
      <point x="369" y="326"/>
      <point x="385" y="326" type="curve" smooth="yes"/>
      <point x="391" y="326" type="line"/>
      <point x="394" y="351" type="line"/>
      <point x="269" y="351" type="line"/>
      <point x="265" y="326" type="line"/>
      <point x="269" y="326" type="line" smooth="yes"/>
      <point x="281" y="325"/>
      <point x="290" y="320"/>
      <point x="286" y="287" type="curve" smooth="yes"/>
      <point x="259" y="68" type="line"/>
      <point x="247" y="56"/>
      <point x="224" y="40"/>
      <point x="194" y="40" type="curve" smooth="yes"/>
      <point x="131" y="40"/>
      <point x="95" y="119"/>
      <point x="95" y="291" type="curve" smooth="yes"/>
      <point x="95" y="336"/>
      <point x="98" y="382"/>
      <point x="104" y="425" type="curve" smooth="yes"/>
      <point x="122" y="566"/>
      <point x="166" y="670"/>
      <point x="248" y="670" type="curve" smooth="yes"/>
      <point x="298" y="670"/>
      <point x="341" y="637"/>
      <point x="350" y="607" type="curve"/>
      <point x="364" y="632"/>
      <point x="352" y="653"/>
      <point x="325" y="660" type="curve"/>
      <point x="309" y="533" type="line"/>
      <point x="379" y="533" type="line"/>
      <point x="392" y="635" type="line"/>
      <point x="368" y="666"/>
      <point x="321" y="701"/>
      <point x="249" y="701" type="curve" smooth="yes"/>
      <point x="105" y="701"/>
      <point x="15" y="526"/>
      <point x="15" y="301" type="curve" smooth="yes"/>
      <point x="15" y="118"/>
      <point x="93" y="9"/>
    </contour>
  </outline>
</glyph>
<glyph name="uni20B4" format="2">
  <advance width="393"/>
  <unicode hex="20B4"/>
  <outline>
    <contour>
      <point x="7" y="272" type="line"/>
      <point x="373" y="272" type="line"/>
      <point x="378" y="305" type="line"/>
      <point x="11" y="305" type="line"/>
    </contour>
    <contour>
      <point x="25" y="422" type="line"/>
      <point x="392" y="422" type="line"/>
      <point x="397" y="455" type="line"/>
      <point x="29" y="455" type="line"/>
    </contour>
    <contour>
      <point x="184" y="-10" type="curve" smooth="yes"/>
      <point x="248" y="-10"/>
      <point x="296" y="18"/>
      <point x="323" y="55" type="curve"/>
      <point x="337" y="164" type="line"/>
      <point x="266" y="164" type="line"/>
      <point x="249" y="32" type="line"/>
      <point x="268" y="32"/>
      <point x="290" y="84"/>
      <point x="288" y="88" type="curve"/>
      <point x="262" y="41"/>
      <point x="234" y="21"/>
      <point x="190" y="21" type="curve" smooth="yes"/>
      <point x="137" y="21"/>
      <point x="107" y="74"/>
      <point x="107" y="153" type="curve" smooth="yes"/>
      <point x="107" y="205"/>
      <point x="122" y="252"/>
      <point x="156" y="278" type="curve"/>
      <point x="69" y="277" type="line"/>
      <point x="44" y="245"/>
      <point x="32" y="205"/>
      <point x="32" y="163" type="curve" smooth="yes"/>
      <point x="32" y="58"/>
      <point x="92" y="-10"/>
    </contour>
    <contour>
      <point x="335" y="443" type="line"/>
      <point x="362" y="474"/>
      <point x="377" y="520"/>
      <point x="377" y="565" type="curve" smooth="yes"/>
      <point x="377" y="656"/>
      <point x="330" y="720"/>
      <point x="239" y="720" type="curve" smooth="yes"/>
      <point x="178" y="720"/>
      <point x="131" y="689"/>
      <point x="109" y="663" type="curve"/>
      <point x="98" y="570" type="line"/>
      <point x="167" y="570" type="line"/>
      <point x="179" y="684" type="line"/>
      <point x="163" y="684"/>
      <point x="142" y="659"/>
      <point x="144" y="627" type="curve"/>
      <point x="165" y="665"/>
      <point x="194" y="689"/>
      <point x="233" y="689" type="curve" smooth="yes"/>
      <point x="284" y="689"/>
      <point x="307" y="642"/>
      <point x="307" y="586" type="curve" smooth="yes"/>
      <point x="307" y="527"/>
      <point x="287" y="474"/>
      <point x="246" y="444" type="curve"/>
    </contour>
  </outline>
</glyph>
<glyph name="trademark" format="2">
  <advance width="588"/>
  <unicode hex="2122"/>
  <outline>
    <contour>
      <point x="90" y="394" type="line"/>
      <point x="198" y="394" type="line"/>
      <point x="201" y="413" type="line"/>
      <point x="194" y="413" type="line" smooth="yes"/>
      <point x="181" y="413"/>
      <point x="172" y="417"/>
      <point x="174" y="430" type="curve" smooth="yes"/>
      <point x="205" y="688" type="line"/>
      <point x="226" y="688" type="line" smooth="yes"/>
      <point x="252" y="688"/>
      <point x="262" y="683"/>
      <point x="261" y="667" type="curve" smooth="yes"/>
      <point x="260" y="619" type="line"/>
      <point x="274" y="619" type="line"/>
      <point x="286" y="710" type="line"/>
      <point x="82" y="710" type="line"/>
      <point x="71" y="619" type="line"/>
      <point x="85" y="619" type="line"/>
      <point x="96" y="667" type="line" smooth="yes"/>
      <point x="99" y="683"/>
      <point x="111" y="688"/>
      <point x="136" y="688" type="curve" smooth="yes"/>
      <point x="157" y="688" type="line"/>
      <point x="125" y="430" type="line" smooth="yes"/>
      <point x="123" y="417"/>
      <point x="113" y="413"/>
      <point x="100" y="413" type="curve" smooth="yes"/>
      <point x="94" y="413" type="line"/>
    </contour>
    <contour>
      <point x="273" y="394" type="line"/>
      <point x="341" y="394" type="line"/>
      <point x="344" y="413" type="line"/>
      <point x="342" y="413" type="line" smooth="yes"/>
      <point x="336" y="413"/>
      <point x="322" y="416"/>
      <point x="323" y="418" type="curve" smooth="yes"/>
      <point x="357" y="702" type="line"/>
      <point x="353" y="701" type="line"/>
      <point x="382" y="393" type="line"/>
      <point x="419" y="393" type="line"/>
      <point x="527" y="701" type="line"/>
      <point x="521" y="701" type="line"/>
      <point x="486" y="418" type="line" smooth="yes"/>
      <point x="486" y="416"/>
      <point x="474" y="413"/>
      <point x="467" y="413" type="curve" smooth="yes"/>
      <point x="465" y="413" type="line"/>
      <point x="461" y="394" type="line"/>
      <point x="559" y="394" type="line"/>
      <point x="563" y="413" type="line"/>
      <point x="558" y="413" type="line" smooth="yes"/>
      <point x="545" y="413"/>
      <point x="535" y="417"/>
      <point x="538" y="430" type="curve" smooth="yes"/>
      <point x="568" y="674" type="line" smooth="yes"/>
      <point x="569" y="688"/>
      <point x="579" y="690"/>
      <point x="592" y="690" type="curve" smooth="yes"/>
      <point x="597" y="690" type="line"/>
      <point x="600" y="710" type="line"/>
      <point x="508" y="710" type="line"/>
      <point x="417" y="439" type="line"/>
      <point x="423" y="438" type="line"/>
      <point x="402" y="710" type="line"/>
      <point x="312" y="710" type="line"/>
      <point x="310" y="690" type="line"/>
      <point x="314" y="690" type="line" smooth="yes"/>
      <point x="326" y="690"/>
      <point x="336" y="688"/>
      <point x="335" y="674" type="curve" smooth="yes"/>
      <point x="305" y="430" type="line" smooth="yes"/>
      <point x="302" y="417"/>
      <point x="292" y="413"/>
      <point x="279" y="413" type="curve"/>
      <point x="275" y="413" type="line"/>
    </contour>
  </outline>
</glyph>
<glyph name="arrowleft" format="2">
  <advance width="520"/>
  <unicode hex="2190"/>
  <outline>
    <contour>
      <point x="266" y="560" type="line"/>
      <point x="39" y="360" type="line"/>
      <point x="39" y="346" type="line"/>
      <point x="266" y="146" type="line"/>
      <point x="273" y="159" type="line"/>
      <point x="153" y="335" type="line"/>
      <point x="481" y="335" type="line"/>
      <point x="481" y="371" type="line"/>
      <point x="153" y="371" type="line"/>
      <point x="273" y="547" type="line"/>
    </contour>
  </outline>
</glyph>
<glyph name="partialdiff" format="2">
  <advance width="403"/>
  <unicode hex="2202"/>
  <outline>
    <contour>
      <point x="167" y="-10" type="curve" smooth="yes"/>
      <point x="288" y="-10"/>
      <point x="369" y="199"/>
      <point x="369" y="454" type="curve" smooth="yes"/>
      <point x="369" y="663"/>
      <point x="305" y="748"/>
      <point x="213" y="748" type="curve" smooth="yes"/>
      <point x="179" y="748"/>
      <point x="142" y="735"/>
      <point x="110" y="706" type="curve"/>
      <point x="120" y="679" type="line"/>
      <point x="145" y="701"/>
      <point x="172" y="715"/>
      <point x="205" y="715" type="curve" smooth="yes"/>
      <point x="257" y="715"/>
      <point x="294" y="670"/>
      <point x="294" y="488" type="curve" smooth="yes"/>
      <point x="294" y="247"/>
      <point x="251" y="23"/>
      <point x="168" y="23" type="curve" smooth="yes"/>
      <point x="128" y="23"/>
      <point x="107" y="80"/>
      <point x="107" y="213" type="curve" smooth="yes"/>
      <point x="107" y="372"/>
      <point x="162" y="495"/>
      <point x="233" y="495" type="curve" smooth="yes"/>
      <point x="274" y="495"/>
      <point x="303" y="467"/>
      <point x="325" y="418" type="curve"/>
      <point x="323" y="479" type="line"/>
      <point x="306" y="499"/>
      <point x="280" y="528"/>
      <point x="230" y="528" type="curve" smooth="yes"/>
      <point x="123" y="528"/>
      <point x="30" y="374"/>
      <point x="30" y="205" type="curve" smooth="yes"/>
      <point x="30" y="87"/>
      <point x="75" y="-10"/>
    </contour>
  </outline>
</glyph>
<glyph name="notequal" format="2">
  <advance width="393"/>
  <unicode hex="2260"/>
  <outline>
    <contour>
      <point x="324" y="568" type="line"/>
      <point x="39" y="87" type="line"/>
      <point x="71" y="87" type="line"/>
      <point x="356" y="568" type="line"/>
    </contour>
    <component base="equal" xOffset="1" yOffset="1"/>
  </outline>
</glyph>
<glyph name="Pcircle" format="2">
  <advance width="593"/>
  <unicode hex="24C5"/>
  <outline>
    <contour>
      <point x="61" y="355" type="curve" smooth="yes"/>
      <point x="61" y="551"/>
      <point x="161" y="705"/>
      <point x="299" y="705" type="curve" smooth="yes"/>
      <point x="438" y="705"/>
      <point x="538" y="551"/>
      <point x="538" y="355" type="curve" smooth="yes"/>
      <point x="538" y="159"/>
      <point x="438" y="5"/>
      <point x="299" y="5" type="curve" smooth="yes"/>
      <point x="161" y="5"/>
      <point x="61" y="159"/>
    </contour>
    <contour>
      <point x="182" y="153" type="line"/>
      <point x="319" y="153" type="line"/>
      <point x="319" y="180" type="line"/>
      <point x="307" y="180" type="line" smooth="yes"/>
      <point x="294" y="180"/>
      <point x="278" y="182"/>
      <point x="278" y="186" type="curve" smooth="yes"/>
      <point x="278" y="308" type="line"/>
      <point x="320" y="308" type="line" smooth="yes"/>
      <point x="392" y="308"/>
      <point x="441" y="357"/>
      <point x="441" y="436" type="curve" smooth="yes"/>
      <point x="441" y="512"/>
      <point x="395" y="557"/>
      <point x="322" y="557" type="curve" smooth="yes"/>
      <point x="182" y="557" type="line"/>
      <point x="182" y="529" type="line"/>
      <point x="186" y="529" type="line" smooth="yes"/>
      <point x="204" y="529"/>
      <point x="218" y="525"/>
      <point x="218" y="509" type="curve" smooth="yes"/>
      <point x="218" y="200" type="line" smooth="yes"/>
      <point x="218" y="184"/>
      <point x="204" y="180"/>
      <point x="186" y="180" type="curve" smooth="yes"/>
      <point x="182" y="180" type="line"/>
    </contour>
    <contour>
      <point x="319" y="526" type="line" smooth="yes"/>
      <point x="359" y="526"/>
      <point x="379" y="501"/>
      <point x="379" y="436" type="curve" smooth="yes"/>
      <point x="379" y="371"/>
      <point x="359" y="338"/>
      <point x="317" y="338" type="curve" smooth="yes"/>
      <point x="278" y="338" type="line"/>
      <point x="278" y="526" type="line"/>
    </contour>
    <contour>
      <point x="30" y="355" type="curve" smooth="yes"/>
      <point x="30" y="138"/>
      <point x="147" y="-29"/>
      <point x="299" y="-29" type="curve" smooth="yes"/>
      <point x="453" y="-29"/>
      <point x="569" y="138"/>
      <point x="569" y="355" type="curve" smooth="yes"/>
      <point x="569" y="572"/>
      <point x="453" y="739"/>
      <point x="299" y="739" type="curve" smooth="yes"/>
      <point x="147" y="739"/>
      <point x="30" y="572"/>
    </contour>
  </outline>
</glyph>
<glyph name="uni25B5" format="2">
  <advance width="439"/>
  <unicode hex="25B5"/>
  <outline>
    <contour>
      <point x="407" y="91" type="line"/>
      <point x="31" y="91" type="line"/>
      <point x="219" y="464" type="line"/>
    </contour>
    <contour>
      <point x="348" y="141" type="line"/>
      <point x="343" y="125" type="line"/>
      <point x="216" y="380" type="line"/>
      <point x="224" y="380" type="line"/>
      <point x="96" y="125" type="line"/>
      <point x="92" y="141" type="line"/>
    </contour>
  </outline>
</glyph>
<glyph name="uni25C3" format="2">
  <advance width="402"/>
  <unicode hex="25C3"/>
  <outline>
    <contour>
      <point x="311" y="545" type="line"/>
      <point x="50" y="277" type="line"/>
      <point x="311" y="10" type="line"/>
    </contour>
    <contour>
      <point x="272" y="460" type="line"/>
      <point x="272" y="95" type="line"/>
      <point x="284" y="102" type="line"/>
      <point x="105" y="283" type="line"/>
      <point x="105" y="272" type="line"/>
      <point x="284" y="453" type="line"/>
    </contour>
  </outline>
</glyph>
<glyph name="uni27F7" format="2">
  <advance width="913"/>
  <unicode hex="27F7"/>
  <outline>
    <contour>
      <point x="737" y="335" type="line"/>
      <point x="656" y="192" type="line"/>
      <point x="664" y="179" type="line"/>
      <point x="874" y="346" type="line"/>
      <point x="874" y="360" type="line"/>
      <point x="664" y="527" type="line"/>
      <point x="656" y="514" type="line"/>
      <point x="737" y="371" type="line"/>
      <point x="176" y="371" type="line"/>
      <point x="256" y="514" type="line"/>
      <point x="249" y="527" type="line"/>
      <point x="39" y="360" type="line"/>
      <point x="39" y="346" type="line"/>
      <point x="249" y="179" type="line"/>
      <point x="256" y="192" type="line"/>
      <point x="176" y="335" type="line"/>
    </contour>
  </outline>
</glyph>
<glyph name="one.den" format="2">
  <advance width="232"/>
  <unicode hex="E403"/>
  <outline>
    <contour>
      <point x="126" y="45" type="curve" smooth="yes"/>
      <point x="163" y="343" type="line"/>
      <point x="117" y="343" type="line"/>
      <point x="98" y="314"/>
      <point x="73" y="300"/>
      <point x="30" y="299" type="curve"/>
      <point x="24" y="259" type="line"/>
      <point x="54" y="260"/>
      <point x="90" y="278"/>
      <point x="106" y="319" type="curve"/>
      <point x="106" y="323"/>
      <point x="102" y="320"/>
      <point x="98" y="313" type="curve"/>
      <point x="65" y="45" type="line" smooth="yes"/>
      <point x="63" y="27"/>
      <point x="45" y="23"/>
      <point x="21" y="23" type="curve" smooth="yes"/>
      <point x="4" y="23" type="line"/>
      <point x="0" y="0" type="line"/>
      <point x="177" y="0" type="line"/>
      <point x="180" y="23" type="line"/>
      <point x="167" y="23" type="line" smooth="yes"/>
      <point x="141" y="23"/>
      <point x="123" y="27"/>
    </contour>
  </outline>
</glyph>
<glyph name="three.den" format="2">
  <advance width="232"/>
  <unicode hex="E405"/>
  <outline>
    <contour>
      <point x="101" y="323" type="curve" smooth="yes"/>
      <point x="79" y="323"/>
      <point x="62" y="306"/>
      <point x="49" y="277" type="curve"/>
      <point x="52" y="304"/>
      <point x="61" y="328"/>
      <point x="72" y="329" type="curve"/>
      <point x="65" y="252" type="line"/>
      <point x="17" y="252" type="line"/>
      <point x="23" y="307" type="line"/>
      <point x="41" y="332"/>
      <point x="71" y="349"/>
      <point x="107" y="349" type="curve" smooth="yes"/>
      <point x="160" y="349"/>
      <point x="195" y="318"/>
      <point x="195" y="268" type="curve" smooth="yes"/>
      <point x="195" y="214"/>
      <point x="153" y="179"/>
      <point x="97" y="181" type="curve"/>
      <point x="90" y="191" type="line"/>
      <point x="161" y="188"/>
      <point x="188" y="145"/>
      <point x="188" y="96" type="curve" smooth="yes"/>
      <point x="188" y="31"/>
      <point x="144" y="-6"/>
      <point x="83" y="-6" type="curve" smooth="yes"/>
      <point x="24" y="-6"/>
      <point x="-8" y="32"/>
      <point x="-18" y="87" type="curve"/>
      <point x="0" y="99" type="line"/>
      <point x="8" y="54"/>
      <point x="28" y="21"/>
      <point x="75" y="21" type="curve" smooth="yes"/>
      <point x="107" y="21"/>
      <point x="127" y="52"/>
      <point x="127" y="102" type="curve" smooth="yes"/>
      <point x="127" y="142"/>
      <point x="113" y="169"/>
      <point x="73" y="169" type="curve" smooth="yes"/>
      <point x="57" y="169" type="line"/>
      <point x="59" y="194" type="line"/>
      <point x="78" y="194" type="line" smooth="yes"/>
      <point x="121" y="194"/>
      <point x="136" y="222"/>
      <point x="136" y="267" type="curve" smooth="yes"/>
      <point x="136" y="298"/>
      <point x="127" y="323"/>
    </contour>
  </outline>
</glyph>
<glyph name="fi" format="2">
  <advance width="422"/>
  <unicode hex="FB01"/>
  <outline>
    <contour>
      <point x="373" y="638" type="curve" smooth="yes"/>
      <point x="402" y="638"/>
      <point x="422" y="662"/>
      <point x="422" y="701" type="curve" smooth="yes"/>
      <point x="422" y="739"/>
      <point x="402" y="763"/>
      <point x="373" y="763" type="curve" smooth="yes"/>
      <point x="344" y="763"/>
      <point x="323" y="739"/>
      <point x="323" y="701" type="curve" smooth="yes"/>
      <point x="323" y="662"/>
      <point x="344" y="638"/>
    </contour>
    <contour>
      <point x="38" y="518" type="line"/>
      <point x="34" y="486" type="line"/>
      <point x="240" y="486" type="line" smooth="yes"/>
      <point x="286" y="486"/>
      <point x="303" y="470"/>
      <point x="300" y="441" type="curve"/>
      <point x="262" y="124" type="line" smooth="yes"/>
      <point x="259" y="109"/>
      <point x="258" y="96"/>
      <point x="258" y="84" type="curve" smooth="yes"/>
      <point x="258" y="20"/>
      <point x="287" y="-10"/>
      <point x="330" y="-10" type="curve" smooth="yes"/>
      <point x="361" y="-10"/>
      <point x="387" y="10"/>
      <point x="401" y="28" type="curve"/>
      <point x="407" y="60" type="line"/>
      <point x="395" y="49"/>
      <point x="376" y="31"/>
      <point x="357" y="31" type="curve" smooth="yes"/>
      <point x="340" y="31"/>
      <point x="333" y="41"/>
      <point x="333" y="67" type="curve" smooth="yes"/>
      <point x="333" y="75"/>
      <point x="334" y="86"/>
      <point x="336" y="97" type="curve" smooth="yes"/>
      <point x="388" y="518" type="line"/>
    </contour>
    <contour>
      <point x="255" y="725" type="curve" smooth="yes"/>
      <point x="267" y="725"/>
      <point x="278" y="721"/>
      <point x="285" y="716" type="curve"/>
      <point x="290" y="751" type="line"/>
      <point x="283" y="755"/>
      <point x="263" y="758"/>
      <point x="248" y="758" type="curve" smooth="yes"/>
      <point x="180" y="758"/>
      <point x="118" y="706"/>
      <point x="107" y="607" type="curve" smooth="yes"/>
      <point x="25" y="-223" type="line"/>
      <point x="90" y="-223" type="line"/>
      <point x="188" y="608" type="line" smooth="yes"/>
      <point x="196" y="690"/>
      <point x="216" y="725"/>
    </contour>
  </outline>
</glyph>
<glyph name="acute.ucpl" format="2">
  <advance width="351"/>
  <anchor x="112" y="694" name="_top"/>
  <outline>
    <contour>
      <point x="148" y="836" type="curve" smooth="yes"/>
      <point x="134" y="764" type="line"/>
      <point x="133" y="750" type="line"/>
      <point x="151" y="750" type="line"/>
      <point x="190" y="802" type="line" smooth="yes"/>
      <point x="218" y="836"/>
      <point x="228" y="854"/>
      <point x="228" y="879" type="curve" smooth="yes"/>
      <point x="228" y="901"/>
      <point x="217" y="917"/>
      <point x="197" y="917" type="curve" smooth="yes"/>
      <point x="172" y="917"/>
      <point x="161" y="896"/>
    </contour>
  </outline>
</glyph>
<glyph name="caron.alt" format="2">
  <advance width="351"/>
  <anchor x="38" y="574" name="_right"/>
  <outline>
    <contour>
      <point x="90" y="526" type="line"/>
      <point x="65" y="526" type="line"/>
      <point x="66" y="536" type="line"/>
      <point x="100" y="710" type="line"/>
      <point x="171" y="710" type="line"/>
    </contour>
  </outline>
</glyph>
<glyph name="cent.alt" format="2">
  <advance width="393"/>
  <outline>
    <contour>
      <point x="243" y="528" type="curve" smooth="yes"/>
      <point x="115" y="528"/>
      <point x="26" y="396"/>
      <point x="26" y="226" type="curve" smooth="yes"/>
      <point x="26" y="70"/>
      <point x="99" y="-10"/>
      <point x="187" y="-10" type="curve" smooth="yes"/>
      <point x="256" y="-10"/>
      <point x="312" y="32"/>
      <point x="343" y="134" type="curve"/>
      <point x="321" y="154" type="line"/>
      <point x="305" y="97"/>
      <point x="267" y="27"/>
      <point x="200" y="27" type="curve" smooth="yes"/>
      <point x="143" y="27"/>
      <point x="107" y="92"/>
      <point x="107" y="214" type="curve" smooth="yes"/>
      <point x="107" y="371"/>
      <point x="162" y="495"/>
      <point x="245" y="495" type="curve" smooth="yes"/>
      <point x="270" y="495"/>
      <point x="305" y="486"/>
      <point x="319" y="447" type="curve"/>
      <point x="324" y="465"/>
      <point x="318" y="477"/>
      <point x="307" y="484" type="curve"/>
      <point x="292" y="369" type="line"/>
      <point x="354" y="369" type="line"/>
      <point x="367" y="469" type="line"/>
      <point x="354" y="487"/>
      <point x="314" y="528"/>
    </contour>
    <contour>
      <point x="161" y="-1" type="line"/>
      <point x="145" y="-126" type="line"/>
      <point x="173" y="-126" type="line"/>
      <point x="189" y="-1" type="line"/>
    </contour>
    <contour>
      <point x="238" y="624" type="line"/>
      <point x="225" y="516" type="line"/>
      <point x="252" y="516" type="line"/>
      <point x="266" y="624" type="line"/>
    </contour>
  </outline>
</glyph>
<glyph name="circumflex_acute" format="2">
  <advance width="359"/>
  <anchor x="136" y="558" name="_top"/>
  <outline>
    <contour>
      <point x="333" y="821" type="curve" smooth="yes"/>
      <point x="291" y="710" type="line"/>
      <point x="290" y="697" type="line"/>
      <point x="307" y="697" type="line"/>
      <point x="377" y="771" type="line" smooth="yes"/>
      <point x="403" y="797"/>
      <point x="415" y="816"/>
      <point x="415" y="845" type="curve" smooth="yes"/>
      <point x="415" y="868"/>
      <point x="403" y="884"/>
      <point x="384" y="884" type="curve" smooth="yes"/>
      <point x="362" y="884"/>
      <point x="349" y="865"/>
    </contour>
    <component base="circumflex" xOffset="-7"/>
  </outline>
</glyph>
<glyph name="circumflex_grave.uc" format="2">
  <advance width="359"/>
  <anchor x="151" y="696" name="_top"/>
  <outline>
    <contour>
      <point x="353" y="953" type="line" smooth="yes"/>
      <point x="341" y="985"/>
      <point x="327" y="1001"/>
      <point x="308" y="1001" type="curve" smooth="yes"/>
      <point x="288" y="1001"/>
      <point x="275" y="981"/>
      <point x="275" y="958" type="curve" smooth="yes"/>
      <point x="275" y="932"/>
      <point x="294" y="911"/>
      <point x="320" y="892" type="curve" smooth="yes"/>
      <point x="369" y="853" type="line"/>
      <point x="384" y="853" type="line"/>
      <point x="384" y="866" type="line"/>
    </contour>
    <component base="circumflex.uc"/>
  </outline>
</glyph>
<glyph name="dieresis.uc" format="2">
  <advance width="351"/>
  <anchor x="163" y="694" name="_top"/>
  <outline>
    <contour>
      <point x="129" y="792" type="curve" smooth="yes"/>
      <point x="157" y="792"/>
      <point x="177" y="815"/>
      <point x="177" y="854" type="curve" smooth="yes"/>
      <point x="177" y="892"/>
      <point x="157" y="915"/>
      <point x="129" y="915" type="curve" smooth="yes"/>
      <point x="101" y="915"/>
      <point x="81" y="892"/>
      <point x="81" y="854" type="curve" smooth="yes"/>
      <point x="81" y="815"/>
      <point x="101" y="792"/>
    </contour>
    <contour>
      <point x="283" y="792" type="curve" smooth="yes"/>
      <point x="311" y="792"/>
      <point x="331" y="815"/>
      <point x="331" y="854" type="curve" smooth="yes"/>
      <point x="331" y="892"/>
      <point x="311" y="915"/>
      <point x="283" y="915" type="curve" smooth="yes"/>
      <point x="255" y="915"/>
      <point x="235" y="892"/>
      <point x="235" y="854" type="curve" smooth="yes"/>
      <point x="235" y="815"/>
      <point x="255" y="792"/>
    </contour>
  </outline>
</glyph>
<glyph name="dollar.altprop" format="2">
  <advance width="398"/>
  <outline>
    <contour>
      <point x="184" y="12" type="curve" smooth="yes"/>
      <point x="292" y="12"/>
      <point x="363" y="86"/>
      <point x="363" y="212" type="curve" smooth="yes"/>
      <point x="363" y="318"/>
      <point x="301" y="361"/>
      <point x="233" y="406" type="curve" smooth="yes"/>
      <point x="158" y="458"/>
      <point x="129" y="474"/>
      <point x="129" y="545" type="curve" smooth="yes"/>
      <point x="129" y="614"/>
      <point x="167" y="661"/>
      <point x="243" y="661" type="curve" smooth="yes"/>
      <point x="292" y="661"/>
      <point x="330" y="645"/>
      <point x="359" y="591" type="curve"/>
      <point x="354" y="613"/>
      <point x="346" y="634"/>
      <point x="333" y="654" type="curve"/>
      <point x="317" y="527" type="line"/>
      <point x="382" y="527" type="line"/>
      <point x="394" y="629" type="line"/>
      <point x="366" y="668"/>
      <point x="309" y="698"/>
      <point x="246" y="698" type="curve" smooth="yes"/>
      <point x="140" y="698"/>
      <point x="70" y="628"/>
      <point x="70" y="523" type="curve" smooth="yes"/>
      <point x="70" y="414"/>
      <point x="129" y="377"/>
      <point x="196" y="332" type="curve" smooth="yes"/>
      <point x="262" y="287"/>
      <point x="298" y="257"/>
      <point x="298" y="186" type="curve" smooth="yes"/>
      <point x="298" y="109"/>
      <point x="257" y="49"/>
      <point x="186" y="49" type="curve" smooth="yes"/>
      <point x="126" y="49"/>
      <point x="79" y="71"/>
      <point x="54" y="116" type="curve"/>
      <point x="52" y="103"/>
      <point x="55" y="92"/>
      <point x="64" y="83" type="curve"/>
      <point x="83" y="213" type="line"/>
      <point x="13" y="213" type="line"/>
      <point x="-2" y="107" type="line"/>
      <point x="19" y="71"/>
      <point x="97" y="12"/>
    </contour>
    <contour>
      <point x="134" y="-120" type="line"/>
      <point x="163" y="-120" type="line"/>
      <point x="180" y="22" type="line"/>
      <point x="153" y="26" type="line"/>
    </contour>
    <contour>
      <point x="234" y="686" type="line"/>
      <point x="262" y="683" type="line"/>
      <point x="276" y="790" type="line"/>
      <point x="247" y="790" type="line"/>
    </contour>
  </outline>
</glyph>
<glyph name="dollar.proportional" format="2">
  <advance width="398"/>
  <outline>
    <contour>
      <point x="184" y="12" type="curve" smooth="yes"/>
      <point x="292" y="12"/>
      <point x="363" y="86"/>
      <point x="363" y="212" type="curve" smooth="yes"/>
      <point x="363" y="318"/>
      <point x="301" y="361"/>
      <point x="233" y="406" type="curve" smooth="yes"/>
      <point x="157" y="458"/>
      <point x="128" y="474"/>
      <point x="128" y="545" type="curve" smooth="yes"/>
      <point x="128" y="614"/>
      <point x="166" y="661"/>
      <point x="243" y="661" type="curve" smooth="yes"/>
      <point x="292" y="661"/>
      <point x="329" y="646"/>
      <point x="359" y="591" type="curve"/>
      <point x="357" y="615"/>
      <point x="348" y="636"/>
      <point x="333" y="654" type="curve"/>
      <point x="317" y="527" type="line"/>
      <point x="382" y="527" type="line"/>
      <point x="394" y="629" type="line"/>
      <point x="366" y="668"/>
      <point x="309" y="698"/>
      <point x="245" y="698" type="curve" smooth="yes"/>
      <point x="139" y="698"/>
      <point x="70" y="628"/>
      <point x="70" y="523" type="curve" smooth="yes"/>
      <point x="70" y="414"/>
      <point x="129" y="377"/>
      <point x="196" y="332" type="curve" smooth="yes"/>
      <point x="263" y="287"/>
      <point x="300" y="257"/>
      <point x="300" y="186" type="curve" smooth="yes"/>
      <point x="300" y="109"/>
      <point x="259" y="49"/>
      <point x="187" y="49" type="curve" smooth="yes"/>
      <point x="126" y="49"/>
      <point x="79" y="71"/>
      <point x="54" y="116" type="curve"/>
      <point x="56" y="103"/>
      <point x="59" y="93"/>
      <point x="64" y="83" type="curve"/>
      <point x="83" y="213" type="line"/>
      <point x="13" y="213" type="line"/>
      <point x="-2" y="107" type="line"/>
      <point x="19" y="71"/>
      <point x="96" y="12"/>
    </contour>
    <contour>
      <point x="247" y="790" type="line"/>
      <point x="234" y="686" type="line"/>
      <point x="232" y="670" type="line"/>
      <point x="154" y="36" type="line"/>
      <point x="153" y="26" type="line"/>
      <point x="134" y="-120" type="line"/>
      <point x="163" y="-120" type="line"/>
      <point x="180" y="22" type="line"/>
      <point x="182" y="35" type="line"/>
      <point x="260" y="672" type="line"/>
      <point x="262" y="683" type="line"/>
      <point x="276" y="790" type="line"/>
    </contour>
  </outline>
</glyph>
<glyph name="eight.lintab" format="2">
  <advance width="393"/>
  <outline>
    <contour>
      <point x="183" y="23" type="curve" smooth="yes"/>
      <point x="126" y="23"/>
      <point x="91" y="81"/>
      <point x="91" y="187" type="curve" smooth="yes"/>
      <point x="91" y="202"/>
      <point x="92" y="216"/>
      <point x="95" y="231" type="curve" smooth="yes"/>
      <point x="106" y="309"/>
      <point x="142" y="361"/>
      <point x="193" y="361" type="curve" smooth="yes"/>
      <point x="251" y="361"/>
      <point x="282" y="301"/>
      <point x="282" y="218" type="curve" smooth="yes"/>
      <point x="282" y="199"/>
      <point x="280" y="181"/>
      <point x="278" y="163" type="curve" smooth="yes"/>
      <point x="267" y="79"/>
      <point x="235" y="23"/>
    </contour>
    <contour>
      <point x="221" y="391" type="curve" smooth="yes"/>
      <point x="176" y="391"/>
      <point x="150" y="440"/>
      <point x="150" y="526" type="curve" smooth="yes"/>
      <point x="150" y="543"/>
      <point x="150" y="560"/>
      <point x="153" y="576" type="curve" smooth="yes"/>
      <point x="162" y="647"/>
      <point x="190" y="687"/>
      <point x="230" y="687" type="curve" smooth="yes"/>
      <point x="274" y="687"/>
      <point x="300" y="640"/>
      <point x="300" y="554" type="curve" smooth="yes"/>
      <point x="300" y="537"/>
      <point x="299" y="521"/>
      <point x="296" y="506" type="curve" smooth="yes"/>
      <point x="287" y="435"/>
      <point x="258" y="391"/>
    </contour>
    <contour>
      <point x="184" y="-10" type="curve" smooth="yes"/>
      <point x="295" y="-10"/>
      <point x="364" y="84"/>
      <point x="364" y="197" type="curve" smooth="yes"/>
      <point x="364" y="294"/>
      <point x="316" y="358"/>
      <point x="245" y="378" type="curve"/>
      <point x="251" y="366" type="line"/>
      <point x="253" y="379" type="line"/>
      <point x="243" y="369" type="line"/>
      <point x="328" y="380"/>
      <point x="375" y="450"/>
      <point x="375" y="545" type="curve" smooth="yes"/>
      <point x="375" y="648"/>
      <point x="315" y="720"/>
      <point x="230" y="720" type="curve" smooth="yes"/>
      <point x="138" y="720"/>
      <point x="74" y="643"/>
      <point x="74" y="542" type="curve" smooth="yes"/>
      <point x="74" y="462"/>
      <point x="111" y="400"/>
      <point x="168" y="377" type="curve"/>
      <point x="161" y="390" type="line"/>
      <point x="159" y="376" type="line"/>
      <point x="168" y="385" type="line"/>
      <point x="73" y="378"/>
      <point x="9" y="307"/>
      <point x="9" y="194" type="curve" smooth="yes"/>
      <point x="9" y="72"/>
      <point x="86" y="-10"/>
    </contour>
  </outline>
</glyph>
<glyph name="eight.oldprop" format="2">
  <advance width="407"/>
  <outline>
    <contour>
      <point x="196" y="23" type="curve" smooth="yes"/>
      <point x="136" y="23"/>
      <point x="98" y="81"/>
      <point x="98" y="187" type="curve" smooth="yes"/>
      <point x="98" y="202"/>
      <point x="99" y="216"/>
      <point x="102" y="232" type="curve" smooth="yes"/>
      <point x="112" y="309"/>
      <point x="152" y="361"/>
      <point x="206" y="361" type="curve" smooth="yes"/>
      <point x="267" y="361"/>
      <point x="300" y="301"/>
      <point x="300" y="218" type="curve" smooth="yes"/>
      <point x="300" y="199"/>
      <point x="298" y="181"/>
      <point x="295" y="163" type="curve" smooth="yes"/>
      <point x="285" y="79"/>
      <point x="250" y="23"/>
    </contour>
    <contour>
      <point x="233" y="391" type="curve" smooth="yes"/>
      <point x="185" y="391"/>
      <point x="156" y="440"/>
      <point x="156" y="526" type="curve" smooth="yes"/>
      <point x="156" y="543"/>
      <point x="157" y="560"/>
      <point x="159" y="576" type="curve" smooth="yes"/>
      <point x="169" y="647"/>
      <point x="199" y="687"/>
      <point x="243" y="687" type="curve" smooth="yes"/>
      <point x="289" y="687"/>
      <point x="318" y="640"/>
      <point x="318" y="554" type="curve" smooth="yes"/>
      <point x="318" y="537"/>
      <point x="317" y="521"/>
      <point x="314" y="506" type="curve" smooth="yes"/>
      <point x="305" y="435"/>
      <point x="273" y="391"/>
    </contour>
    <contour>
      <point x="196" y="-10" type="curve" smooth="yes"/>
      <point x="311" y="-10"/>
      <point x="382" y="84"/>
      <point x="382" y="197" type="curve" smooth="yes"/>
      <point x="382" y="293"/>
      <point x="335" y="355"/>
      <point x="263" y="377" type="curve"/>
      <point x="269" y="367" type="line"/>
      <point x="270" y="380" type="line"/>
      <point x="261" y="370" type="line"/>
      <point x="346" y="383"/>
      <point x="393" y="452"/>
      <point x="393" y="545" type="curve" smooth="yes"/>
      <point x="393" y="648"/>
      <point x="331" y="720"/>
      <point x="242" y="720" type="curve" smooth="yes"/>
      <point x="146" y="720"/>
      <point x="80" y="643"/>
      <point x="80" y="542" type="curve" smooth="yes"/>
      <point x="80" y="462"/>
      <point x="119" y="401"/>
      <point x="177" y="378" type="curve"/>
      <point x="172" y="390" type="line"/>
      <point x="169" y="374" type="line"/>
      <point x="179" y="385" type="line"/>
      <point x="81" y="377"/>
      <point x="16" y="307"/>
      <point x="16" y="194" type="curve" smooth="yes"/>
      <point x="16" y="72"/>
      <point x="95" y="-10"/>
    </contour>
  </outline>
</glyph>
<glyph name="eight.oldtab" format="2">
  <advance width="393"/>
  <outline>
    <contour>
      <point x="191" y="23" type="curve" smooth="yes"/>
      <point x="134" y="23"/>
      <point x="98" y="81"/>
      <point x="98" y="187" type="curve" smooth="yes"/>
      <point x="98" y="202"/>
      <point x="99" y="216"/>
      <point x="102" y="231" type="curve" smooth="yes"/>
      <point x="113" y="309"/>
      <point x="149" y="361"/>
      <point x="200" y="361" type="curve" smooth="yes"/>
      <point x="257" y="361"/>
      <point x="289" y="301"/>
      <point x="289" y="218" type="curve" smooth="yes"/>
      <point x="289" y="199"/>
      <point x="287" y="181"/>
      <point x="284" y="163" type="curve" smooth="yes"/>
      <point x="274" y="79"/>
      <point x="241" y="23"/>
    </contour>
    <contour>
      <point x="228" y="391" type="curve" smooth="yes"/>
      <point x="183" y="391"/>
      <point x="156" y="440"/>
      <point x="156" y="526" type="curve" smooth="yes"/>
      <point x="156" y="543"/>
      <point x="157" y="560"/>
      <point x="160" y="576" type="curve" smooth="yes"/>
      <point x="169" y="647"/>
      <point x="196" y="687"/>
      <point x="237" y="687" type="curve" smooth="yes"/>
      <point x="280" y="687"/>
      <point x="307" y="640"/>
      <point x="307" y="554" type="curve" smooth="yes"/>
      <point x="307" y="537"/>
      <point x="306" y="521"/>
      <point x="303" y="506" type="curve" smooth="yes"/>
      <point x="294" y="435"/>
      <point x="265" y="391"/>
    </contour>
    <contour>
      <point x="190" y="-10" type="curve" smooth="yes"/>
      <point x="302" y="-10"/>
      <point x="371" y="84"/>
      <point x="371" y="197" type="curve" smooth="yes"/>
      <point x="371" y="292"/>
      <point x="326" y="353"/>
      <point x="258" y="376" type="curve"/>
      <point x="262" y="364" type="line"/>
      <point x="265" y="378" type="line"/>
      <point x="257" y="370" type="line"/>
      <point x="338" y="384"/>
      <point x="382" y="453"/>
      <point x="382" y="545" type="curve" smooth="yes"/>
      <point x="382" y="648"/>
      <point x="322" y="720"/>
      <point x="237" y="720" type="curve" smooth="yes"/>
      <point x="145" y="720"/>
      <point x="81" y="643"/>
      <point x="81" y="542" type="curve" smooth="yes"/>
      <point x="81" y="462"/>
      <point x="118" y="400"/>
      <point x="175" y="377" type="curve"/>
      <point x="172" y="389" type="line"/>
      <point x="168" y="374" type="line"/>
      <point x="177" y="385" type="line"/>
      <point x="81" y="379"/>
      <point x="16" y="308"/>
      <point x="16" y="194" type="curve" smooth="yes"/>
      <point x="16" y="72"/>
      <point x="92" y="-10"/>
    </contour>
  </outline>
</glyph>
<glyph name="f_f_h.alt" format="2">
  <advance width="853"/>
  <outline>
    <contour>
      <point x="251" y="518" type="line"/>
      <point x="247" y="486" type="line"/>
      <point x="469" y="486" type="line"/>
      <point x="474" y="518" type="line"/>
    </contour>
    <contour>
      <point x="305" y="-193" type="line"/>
      <point x="396" y="585" type="line" smooth="yes"/>
      <point x="408" y="683"/>
      <point x="432" y="725"/>
      <point x="489" y="725" type="curve" smooth="yes"/>
      <point x="525" y="725"/>
      <point x="555" y="706"/>
      <point x="573" y="680" type="curve"/>
      <point x="599" y="725" type="line"/>
      <point x="576" y="745"/>
      <point x="534" y="758"/>
      <point x="489" y="758" type="curve" smooth="yes"/>
      <point x="395" y="758"/>
      <point x="329" y="694"/>
      <point x="317" y="582" type="curve" smooth="yes"/>
      <point x="240" y="-193" type="line"/>
    </contour>
    <contour>
      <point x="537" y="0" type="line"/>
      <point x="631" y="750" type="line"/>
      <point x="497" y="750" type="line"/>
      <point x="549" y="723" type="line"/>
      <point x="459" y="0" type="line"/>
    </contour>
    <contour>
      <point x="692" y="124" type="line" smooth="yes"/>
      <point x="689" y="109"/>
      <point x="688" y="96"/>
      <point x="688" y="84" type="curve" smooth="yes"/>
      <point x="688" y="20"/>
      <point x="717" y="-10"/>
      <point x="760" y="-10" type="curve" smooth="yes"/>
      <point x="790" y="-10"/>
      <point x="817" y="10"/>
      <point x="831" y="28" type="curve"/>
      <point x="837" y="60" type="line"/>
      <point x="824" y="49"/>
      <point x="806" y="31"/>
      <point x="787" y="31" type="curve" smooth="yes"/>
      <point x="770" y="31"/>
      <point x="763" y="41"/>
      <point x="763" y="66" type="curve" smooth="yes"/>
      <point x="763" y="74"/>
      <point x="765" y="85"/>
      <point x="766" y="97" type="curve" smooth="yes"/>
      <point x="798" y="349" type="line" smooth="yes"/>
      <point x="801" y="368"/>
      <point x="803" y="388"/>
      <point x="803" y="408" type="curve" smooth="yes"/>
      <point x="803" y="478"/>
      <point x="773" y="528"/>
      <point x="713" y="528" type="curve" smooth="yes"/>
      <point x="644" y="528"/>
      <point x="600" y="454"/>
      <point x="557" y="308" type="curve"/>
      <point x="568" y="281" type="line"/>
      <point x="608" y="420"/>
      <point x="641" y="485"/>
      <point x="686" y="485" type="curve" smooth="yes"/>
      <point x="716" y="485"/>
      <point x="725" y="458"/>
      <point x="725" y="422" type="curve" smooth="yes"/>
      <point x="725" y="403"/>
      <point x="722" y="377"/>
      <point x="720" y="356" type="curve" smooth="yes"/>
    </contour>
    <contour>
      <point x="38" y="518" type="line"/>
      <point x="34" y="486" type="line"/>
      <point x="259" y="486" type="line"/>
      <point x="264" y="518" type="line"/>
    </contour>
    <contour>
      <point x="386" y="676" type="line"/>
      <point x="362" y="712"/>
      <point x="324" y="743"/>
      <point x="265" y="743" type="curve" smooth="yes"/>
      <point x="184" y="743"/>
      <point x="116" y="689"/>
      <point x="105" y="582" type="curve" smooth="yes"/>
      <point x="25" y="-223" type="line"/>
      <point x="90" y="-223" type="line"/>
      <point x="184" y="585" type="line" smooth="yes"/>
      <point x="195" y="674"/>
      <point x="224" y="709"/>
      <point x="270" y="709" type="curve" smooth="yes"/>
      <point x="302" y="709"/>
      <point x="331" y="689"/>
      <point x="348" y="640" type="curve"/>
      <point x="350" y="661"/>
      <point x="342" y="689"/>
      <point x="330" y="703" type="curve"/>
      <point x="319" y="600" type="line"/>
      <point x="374" y="572" type="line"/>
    </contour>
  </outline>
</glyph>
<glyph name="f_f_h" format="2">
  <advance width="856"/>
  <outline>
    <contour>
      <point x="38" y="518" type="line"/>
      <point x="34" y="486" type="line"/>
      <point x="259" y="486" type="line"/>
      <point x="264" y="518" type="line"/>
    </contour>
    <contour>
      <point x="251" y="518" type="line"/>
      <point x="247" y="486" type="line"/>
      <point x="469" y="486" type="line"/>
      <point x="474" y="518" type="line"/>
    </contour>
    <contour>
      <point x="265" y="715" type="curve" smooth="yes"/>
      <point x="282" y="715"/>
      <point x="295" y="710"/>
      <point x="303" y="705" type="curve"/>
      <point x="307" y="738" type="line"/>
      <point x="298" y="743"/>
      <point x="281" y="748"/>
      <point x="261" y="748" type="curve" smooth="yes"/>
      <point x="182" y="748"/>
      <point x="115" y="692"/>
      <point x="103" y="569" type="curve" smooth="yes"/>
      <point x="25" y="-223" type="line"/>
      <point x="90" y="-223" type="line"/>
      <point x="185" y="587" type="line" smooth="yes"/>
      <point x="195" y="677"/>
      <point x="215" y="715"/>
    </contour>
    <contour>
      <point x="537" y="0" type="line"/>
      <point x="631" y="750" type="line"/>
      <point x="497" y="750" type="line"/>
      <point x="549" y="723" type="line"/>
      <point x="459" y="0" type="line"/>
    </contour>
    <contour>
      <point x="692" y="124" type="line" smooth="yes"/>
      <point x="689" y="109"/>
      <point x="688" y="96"/>
      <point x="688" y="84" type="curve" smooth="yes"/>
      <point x="688" y="20"/>
      <point x="717" y="-10"/>
      <point x="760" y="-10" type="curve" smooth="yes"/>
      <point x="790" y="-10"/>
      <point x="817" y="10"/>
      <point x="831" y="28" type="curve"/>
      <point x="837" y="60" type="line"/>
      <point x="824" y="49"/>
      <point x="806" y="31"/>
      <point x="787" y="31" type="curve" smooth="yes"/>
      <point x="770" y="31"/>
      <point x="763" y="41"/>
      <point x="763" y="66" type="curve" smooth="yes"/>
      <point x="763" y="74"/>
      <point x="765" y="85"/>
      <point x="766" y="97" type="curve" smooth="yes"/>
      <point x="798" y="349" type="line" smooth="yes"/>
      <point x="801" y="368"/>
      <point x="803" y="388"/>
      <point x="803" y="408" type="curve" smooth="yes"/>
      <point x="803" y="478"/>
      <point x="773" y="528"/>
      <point x="713" y="528" type="curve" smooth="yes"/>
      <point x="644" y="528"/>
      <point x="600" y="454"/>
      <point x="557" y="308" type="curve"/>
      <point x="568" y="281" type="line"/>
      <point x="608" y="420"/>
      <point x="641" y="485"/>
      <point x="686" y="485" type="curve" smooth="yes"/>
      <point x="716" y="485"/>
      <point x="725" y="458"/>
      <point x="725" y="422" type="curve" smooth="yes"/>
      <point x="725" y="403"/>
      <point x="722" y="377"/>
      <point x="720" y="356" type="curve" smooth="yes"/>
    </contour>
    <contour>
      <point x="489" y="725" type="curve" smooth="yes"/>
      <point x="526" y="725"/>
      <point x="555" y="706"/>
      <point x="573" y="680" type="curve"/>
      <point x="599" y="725" type="line"/>
      <point x="576" y="745"/>
      <point x="533" y="758"/>
      <point x="489" y="758" type="curve" smooth="yes"/>
      <point x="394" y="758"/>
      <point x="329" y="695"/>
      <point x="317" y="584" type="curve" smooth="yes"/>
      <point x="240" y="-193" type="line"/>
      <point x="305" y="-193" type="line"/>
      <point x="396" y="585" type="line" smooth="yes"/>
      <point x="408" y="683"/>
      <point x="432" y="725"/>
    </contour>
  </outline>
</glyph>
<glyph name="f_f_j.alt" format="2">
  <advance width="628"/>
  <outline>
    <contour>
      <point x="38" y="518" type="line"/>
      <point x="34" y="486" type="line"/>
      <point x="259" y="486" type="line"/>
      <point x="264" y="518" type="line"/>
    </contour>
    <contour>
      <point x="400" y="-236" type="curve" smooth="yes"/>
      <point x="467" y="-236"/>
      <point x="513" y="-194"/>
      <point x="527" y="-82" type="curve" smooth="yes"/>
      <point x="600" y="518" type="line"/>
      <point x="251" y="518" type="line"/>
      <point x="247" y="486" type="line"/>
      <point x="453" y="486" type="line" smooth="yes"/>
      <point x="499" y="486"/>
      <point x="515" y="470"/>
      <point x="512" y="441" type="curve" smooth="yes"/>
      <point x="444" y="-112" type="line" smooth="yes"/>
      <point x="438" y="-164"/>
      <point x="421" y="-202"/>
      <point x="391" y="-202" type="curve" smooth="yes"/>
      <point x="377" y="-202"/>
      <point x="362" y="-197"/>
      <point x="352" y="-188" type="curve"/>
      <point x="347" y="-220" type="line"/>
      <point x="359" y="-228"/>
      <point x="378" y="-236"/>
    </contour>
    <contour>
      <point x="235" y="-193" type="line"/>
      <point x="301" y="-193" type="line"/>
      <point x="397" y="591" type="line" smooth="yes"/>
      <point x="408" y="680"/>
      <point x="437" y="725"/>
      <point x="494" y="725" type="curve" smooth="yes"/>
      <point x="526" y="725"/>
      <point x="552" y="711"/>
      <point x="562" y="682" type="curve"/>
      <point x="575" y="692"/>
      <point x="562" y="722"/>
      <point x="546" y="724" type="curve"/>
      <point x="534" y="636" type="line"/>
      <point x="600" y="636" type="line"/>
      <point x="610" y="712" type="line"/>
      <point x="591" y="737"/>
      <point x="543" y="758"/>
      <point x="496" y="758" type="curve" smooth="yes"/>
      <point x="402" y="758"/>
      <point x="330" y="700"/>
      <point x="316" y="569" type="curve" smooth="yes"/>
    </contour>
    <contour>
      <point x="25" y="-223" type="line"/>
      <point x="90" y="-223" type="line"/>
      <point x="184" y="585" type="line" smooth="yes"/>
      <point x="195" y="674"/>
      <point x="224" y="709"/>
      <point x="270" y="709" type="curve" smooth="yes"/>
      <point x="302" y="709"/>
      <point x="331" y="689"/>
      <point x="348" y="640" type="curve"/>
      <point x="350" y="661"/>
      <point x="347" y="687"/>
      <point x="330" y="701" type="curve"/>
      <point x="316" y="570" type="line"/>
      <point x="371" y="541" type="line"/>
      <point x="386" y="676" type="line"/>
      <point x="362" y="712"/>
      <point x="324" y="743"/>
      <point x="265" y="743" type="curve" smooth="yes"/>
      <point x="184" y="743"/>
      <point x="116" y="689"/>
      <point x="105" y="582" type="curve" smooth="yes"/>
    </contour>
  </outline>
</glyph>
<glyph name="f_f_j" format="2">
  <advance width="627"/>
  <outline>
    <contour>
      <point x="38" y="518" type="line"/>
      <point x="34" y="486" type="line"/>
      <point x="259" y="486" type="line"/>
      <point x="264" y="518" type="line"/>
    </contour>
    <contour>
      <point x="90" y="-223" type="line"/>
      <point x="185" y="587" type="line" smooth="yes"/>
      <point x="195" y="677"/>
      <point x="215" y="715"/>
      <point x="265" y="715" type="curve" smooth="yes"/>
      <point x="282" y="715"/>
      <point x="295" y="710"/>
      <point x="303" y="705" type="curve"/>
      <point x="307" y="738" type="line"/>
      <point x="298" y="743"/>
      <point x="281" y="748"/>
      <point x="261" y="748" type="curve" smooth="yes"/>
      <point x="182" y="748"/>
      <point x="115" y="692"/>
      <point x="103" y="569" type="curve" smooth="yes"/>
      <point x="25" y="-223" type="line"/>
    </contour>
    <contour>
      <point x="304" y="-193" type="line"/>
      <point x="399" y="608" type="line" smooth="yes"/>
      <point x="408" y="690"/>
      <point x="427" y="725"/>
      <point x="466" y="725" type="curve" smooth="yes"/>
      <point x="479" y="725"/>
      <point x="490" y="721"/>
      <point x="497" y="716" type="curve"/>
      <point x="502" y="751" type="line"/>
      <point x="495" y="755"/>
      <point x="475" y="758"/>
      <point x="459" y="758" type="curve" smooth="yes"/>
      <point x="392" y="758"/>
      <point x="330" y="706"/>
      <point x="319" y="607" type="curve" smooth="yes"/>
      <point x="238" y="-193" type="line"/>
    </contour>
    <contour>
      <point x="585" y="638" type="curve" smooth="yes"/>
      <point x="614" y="638"/>
      <point x="634" y="662"/>
      <point x="634" y="701" type="curve" smooth="yes"/>
      <point x="634" y="739"/>
      <point x="614" y="763"/>
      <point x="585" y="763" type="curve" smooth="yes"/>
      <point x="555" y="763"/>
      <point x="535" y="739"/>
      <point x="535" y="701" type="curve" smooth="yes"/>
      <point x="535" y="662"/>
      <point x="555" y="638"/>
    </contour>
    <contour>
      <point x="250" y="518" type="line"/>
      <point x="246" y="486" type="line"/>
      <point x="452" y="486" type="line" smooth="yes"/>
      <point x="498" y="486"/>
      <point x="515" y="470"/>
      <point x="511" y="441" type="curve" smooth="yes"/>
      <point x="443" y="-112" type="line" smooth="yes"/>
      <point x="437" y="-164"/>
      <point x="421" y="-202"/>
      <point x="392" y="-202" type="curve" smooth="yes"/>
      <point x="378" y="-202"/>
      <point x="365" y="-197"/>
      <point x="355" y="-189" type="curve"/>
      <point x="350" y="-221" type="line"/>
      <point x="362" y="-229"/>
      <point x="380" y="-236"/>
      <point x="401" y="-236" type="curve" smooth="yes"/>
      <point x="467" y="-236"/>
      <point x="512" y="-194"/>
      <point x="527" y="-82" type="curve" smooth="yes"/>
      <point x="600" y="518" type="line"/>
    </contour>
  </outline>
</glyph>
<glyph name="f_j" format="2">
  <advance width="415"/>
  <outline>
    <contour>
      <point x="373" y="638" type="curve" smooth="yes"/>
      <point x="402" y="638"/>
      <point x="422" y="662"/>
      <point x="422" y="701" type="curve" smooth="yes"/>
      <point x="422" y="739"/>
      <point x="402" y="763"/>
      <point x="373" y="763" type="curve" smooth="yes"/>
      <point x="344" y="763"/>
      <point x="323" y="739"/>
      <point x="323" y="701" type="curve" smooth="yes"/>
      <point x="323" y="662"/>
      <point x="344" y="638"/>
    </contour>
    <contour>
      <point x="255" y="725" type="curve" smooth="yes"/>
      <point x="267" y="725"/>
      <point x="278" y="721"/>
      <point x="285" y="716" type="curve"/>
      <point x="290" y="751" type="line"/>
      <point x="282" y="755"/>
      <point x="263" y="758"/>
      <point x="248" y="758" type="curve" smooth="yes"/>
      <point x="180" y="758"/>
      <point x="118" y="706"/>
      <point x="107" y="607" type="curve" smooth="yes"/>
      <point x="25" y="-223" type="line"/>
      <point x="90" y="-223" type="line"/>
      <point x="188" y="608" type="line" smooth="yes"/>
      <point x="196" y="690"/>
      <point x="216" y="725"/>
    </contour>
    <contour>
      <point x="232" y="-112" type="line" smooth="yes"/>
      <point x="225" y="-164"/>
      <point x="210" y="-202"/>
      <point x="181" y="-202" type="curve" smooth="yes"/>
      <point x="168" y="-202"/>
      <point x="154" y="-198"/>
      <point x="144" y="-189" type="curve"/>
      <point x="140" y="-221" type="line"/>
      <point x="151" y="-229"/>
      <point x="169" y="-236"/>
      <point x="190" y="-236" type="curve" smooth="yes"/>
      <point x="256" y="-236"/>
      <point x="301" y="-194"/>
      <point x="315" y="-82" type="curve" smooth="yes"/>
      <point x="388" y="518" type="line"/>
      <point x="38" y="518" type="line"/>
      <point x="34" y="486" type="line"/>
      <point x="240" y="486" type="line" smooth="yes"/>
      <point x="286" y="486"/>
      <point x="303" y="470"/>
      <point x="300" y="441" type="curve" smooth="yes"/>
    </contour>
  </outline>
</glyph>
<glyph name="florin" format="2">
  <advance width="393"/>
  <outline>
    <contour>
      <point x="102" y="499" type="line"/>
      <point x="95" y="466" type="line"/>
      <point x="345" y="466" type="line"/>
      <point x="353" y="499" type="line"/>
    </contour>
    <contour>
      <point x="168" y="36" type="curve" smooth="yes"/>
      <point x="260" y="576" type="line" smooth="yes"/>
      <point x="279" y="690"/>
      <point x="303" y="725"/>
      <point x="348" y="725" type="curve" smooth="yes"/>
      <point x="373" y="725"/>
      <point x="394" y="715"/>
      <point x="411" y="703" type="curve"/>
      <point x="416" y="737" type="line"/>
      <point x="400" y="748"/>
      <point x="372" y="758"/>
      <point x="343" y="758" type="curve" smooth="yes"/>
      <point x="260" y="758"/>
      <point x="205" y="700"/>
      <point x="184" y="578" type="curve" smooth="yes"/>
      <point x="91" y="49" type="line" smooth="yes"/>
      <point x="61" y="-147"/>
      <point x="35" y="-203"/>
      <point x="-11" y="-203" type="curve" smooth="yes"/>
      <point x="-37" y="-203"/>
      <point x="-54" y="-188"/>
      <point x="-60" y="-185" type="curve"/>
      <point x="-66" y="-221" type="line"/>
      <point x="-53" y="-229"/>
      <point x="-35" y="-236"/>
      <point x="-10" y="-236" type="curve" smooth="yes"/>
      <point x="78" y="-236"/>
      <point x="137" y="-136"/>
    </contour>
  </outline>
</glyph>
<glyph name="g.alt" format="2">
  <advance width="422"/>
  <outline>
    <contour>
      <point x="433" y="452" type="curve"/>
      <point x="443" y="527" type="line"/>
      <point x="437" y="528"/>
      <point x="431" y="529"/>
      <point x="425" y="529" type="curve" smooth="yes"/>
      <point x="385" y="529"/>
      <point x="354" y="500"/>
      <point x="325" y="445" type="curve"/>
      <point x="332" y="429" type="line"/>
      <point x="355" y="461"/>
      <point x="392" y="466"/>
    </contour>
    <contour>
      <point x="201" y="193" type="curve" smooth="yes"/>
      <point x="160" y="193"/>
      <point x="139" y="237"/>
      <point x="139" y="306" type="curve" smooth="yes"/>
      <point x="139" y="412"/>
      <point x="176" y="495"/>
      <point x="231" y="495" type="curve" smooth="yes"/>
      <point x="270" y="495"/>
      <point x="290" y="452"/>
      <point x="290" y="383" type="curve" smooth="yes"/>
      <point x="290" y="281"/>
      <point x="253" y="193"/>
    </contour>
    <contour>
      <point x="203" y="160" type="curve" smooth="yes"/>
      <point x="303" y="160"/>
      <point x="364" y="258"/>
      <point x="364" y="362" type="curve" smooth="yes"/>
      <point x="364" y="463"/>
      <point x="308" y="528"/>
      <point x="226" y="528" type="curve" smooth="yes"/>
      <point x="126" y="528"/>
      <point x="64" y="431"/>
      <point x="64" y="327" type="curve" smooth="yes"/>
      <point x="64" y="226"/>
      <point x="120" y="160"/>
    </contour>
    <contour>
      <point x="136" y="-249" type="curve" smooth="yes"/>
      <point x="156" y="-249" type="line" smooth="yes"/>
      <point x="275" y="-249"/>
      <point x="367" y="-184"/>
      <point x="367" y="-55" type="curve" smooth="yes"/>
      <point x="367" y="16"/>
      <point x="331" y="66"/>
      <point x="258" y="66" type="curve" smooth="yes"/>
      <point x="125" y="66" type="line" smooth="yes"/>
      <point x="93" y="66"/>
      <point x="75" y="87"/>
      <point x="75" y="114" type="curve" smooth="yes"/>
      <point x="75" y="148"/>
      <point x="94" y="174"/>
      <point x="133" y="195" type="curve"/>
      <point x="115" y="212" type="line"/>
      <point x="51" y="179"/>
      <point x="20" y="133"/>
      <point x="20" y="77" type="curve" smooth="yes"/>
      <point x="20" y="40"/>
      <point x="33" y="8"/>
      <point x="58" y="-10" type="curve"/>
      <point x="55" y="-24" type="line"/>
      <point x="245" y="-24" type="line" smooth="yes"/>
      <point x="288" y="-24"/>
      <point x="304" y="-51"/>
      <point x="304" y="-87" type="curve" smooth="yes"/>
      <point x="304" y="-162"/>
      <point x="249" y="-216"/>
      <point x="160" y="-216" type="curve" smooth="yes"/>
      <point x="143" y="-216" type="line" smooth="yes"/>
      <point x="63" y="-216"/>
      <point x="27" y="-173"/>
      <point x="27" y="-116" type="curve" smooth="yes"/>
      <point x="27" y="-70"/>
      <point x="44" y="-31"/>
      <point x="94" y="-11" type="curve"/>
      <point x="87" y="7" type="line"/>
      <point x="7" y="-20"/>
      <point x="-28" y="-61"/>
      <point x="-28" y="-120" type="curve" smooth="yes"/>
      <point x="-28" y="-200"/>
      <point x="42" y="-249"/>
    </contour>
  </outline>
</glyph>
<glyph name="heart" format="2">
  <advance width="633"/>
  <outline>
    <contour>
      <point x="322" y="-10" type="line"/>
      <point x="338" y="-10" type="line"/>
      <point x="505" y="273" type="line" smooth="yes"/>
      <point x="565" y="375"/>
      <point x="598" y="437"/>
      <point x="598" y="535" type="curve" smooth="yes"/>
      <point x="598" y="632"/>
      <point x="551" y="710"/>
      <point x="470" y="710" type="curve" smooth="yes"/>
      <point x="404" y="710"/>
      <point x="358" y="657"/>
      <point x="331" y="569" type="curve"/>
      <point x="304" y="657"/>
      <point x="256" y="710"/>
      <point x="191" y="710" type="curve" smooth="yes"/>
      <point x="109" y="710"/>
      <point x="64" y="632"/>
      <point x="64" y="535" type="curve" smooth="yes"/>
      <point x="64" y="437"/>
      <point x="96" y="375"/>
      <point x="156" y="273" type="curve" smooth="yes"/>
    </contour>
  </outline>
</glyph>
<glyph name="heartsuitwhite" format="2">
  <advance width="633"/>
  <outline>
    <contour>
      <point x="95" y="531" type="curve" smooth="yes"/>
      <point x="95" y="613"/>
      <point x="131" y="671"/>
      <point x="193" y="671" type="curve" smooth="yes"/>
      <point x="260" y="671"/>
      <point x="305" y="582"/>
      <point x="327" y="494" type="curve"/>
      <point x="334" y="494" type="line"/>
      <point x="357" y="582"/>
      <point x="400" y="671"/>
      <point x="467" y="671" type="curve" smooth="yes"/>
      <point x="530" y="671"/>
      <point x="566" y="613"/>
      <point x="566" y="531" type="curve" smooth="yes"/>
      <point x="566" y="448"/>
      <point x="535" y="389"/>
      <point x="481" y="297" type="curve" smooth="yes"/>
      <point x="323" y="26" type="line"/>
      <point x="338" y="26" type="line"/>
      <point x="179" y="297" type="line" smooth="yes"/>
      <point x="126" y="388"/>
      <point x="95" y="448"/>
    </contour>
    <contour>
      <point x="64" y="535" type="curve" smooth="yes"/>
      <point x="64" y="437"/>
      <point x="96" y="375"/>
      <point x="156" y="273" type="curve" smooth="yes"/>
      <point x="322" y="-10" type="line"/>
      <point x="338" y="-10" type="line"/>
      <point x="505" y="273" type="line" smooth="yes"/>
      <point x="565" y="375"/>
      <point x="598" y="437"/>
      <point x="598" y="535" type="curve" smooth="yes"/>
      <point x="598" y="632"/>
      <point x="551" y="710"/>
      <point x="470" y="710" type="curve" smooth="yes"/>
      <point x="404" y="710"/>
      <point x="358" y="657"/>
      <point x="331" y="569" type="curve"/>
      <point x="304" y="657"/>
      <point x="256" y="710"/>
      <point x="191" y="710" type="curve" smooth="yes"/>
      <point x="109" y="710"/>
      <point x="64" y="632"/>
    </contour>
  </outline>
</glyph>
<glyph name="hook.uc" format="2">
  <advance width="359"/>
  <anchor x="152" y="679" name="_top"/>
  <outline>
    <contour>
      <point x="83" y="882" type="line"/>
      <point x="91" y="935"/>
      <point x="118" y="968"/>
      <point x="174" y="968" type="curve" smooth="yes"/>
      <point x="229" y="968"/>
      <point x="259" y="936"/>
      <point x="259" y="887" type="curve" smooth="yes"/>
      <point x="259" y="840"/>
      <point x="223" y="797"/>
      <point x="153" y="790" type="curve"/>
      <point x="168" y="815" type="line"/>
      <point x="162" y="756" type="line"/>
      <point x="133" y="756" type="line"/>
      <point x="140" y="814" type="line"/>
      <point x="180" y="821"/>
      <point x="201" y="841"/>
      <point x="201" y="885" type="curve" smooth="yes"/>
      <point x="201" y="917"/>
      <point x="190" y="936"/>
      <point x="168" y="936" type="curve" smooth="yes"/>
      <point x="144" y="936"/>
      <point x="132" y="914"/>
      <point x="127" y="882" type="curve"/>
    </contour>
  </outline>
</glyph>
<glyph name="hungarumlaut.uc" format="2">
  <advance width="351"/>
  <anchor x="171" y="694" name="_top"/>
  <outline>
    <contour>
      <point x="167" y="852" type="curve" smooth="yes"/>
      <point x="147" y="770" type="line"/>
      <point x="146" y="757" type="line"/>
      <point x="164" y="757" type="line"/>
      <point x="205" y="802" type="line" smooth="yes"/>
      <point x="233" y="832"/>
      <point x="244" y="850"/>
      <point x="244" y="876" type="curve" smooth="yes"/>
      <point x="244" y="899"/>
      <point x="231" y="915"/>
      <point x="212" y="915" type="curve" smooth="yes"/>
      <point x="191" y="915"/>
      <point x="179" y="898"/>
    </contour>
    <contour>
      <point x="237" y="852" type="curve" smooth="yes"/>
      <point x="217" y="770" type="line"/>
      <point x="217" y="757" type="line"/>
      <point x="235" y="757" type="line"/>
      <point x="276" y="802" type="line" smooth="yes"/>
      <point x="303" y="832"/>
      <point x="315" y="850"/>
      <point x="315" y="876" type="curve" smooth="yes"/>
      <point x="315" y="899"/>
      <point x="301" y="915"/>
      <point x="283" y="915" type="curve" smooth="yes"/>
      <point x="261" y="915"/>
      <point x="249" y="898"/>
    </contour>
  </outline>
</glyph>
<glyph name="kip.proportional" format="2">
  <advance width="502"/>
  <outline>
    <contour>
      <point x="3" y="0" type="line"/>
      <point x="198" y="0" type="line"/>
      <point x="201" y="31" type="line"/>
      <point x="196" y="31" type="line" smooth="yes"/>
      <point x="174" y="31"/>
      <point x="146" y="34"/>
      <point x="147" y="41" type="curve" smooth="yes"/>
      <point x="224" y="669" type="line" smooth="yes"/>
      <point x="225" y="676"/>
      <point x="254" y="679"/>
      <point x="278" y="679" type="curve" smooth="yes"/>
      <point x="284" y="679" type="line"/>
      <point x="288" y="710" type="line"/>
      <point x="91" y="710" type="line"/>
      <point x="88" y="679" type="line"/>
      <point x="92" y="679" type="line" smooth="yes"/>
      <point x="117" y="679"/>
      <point x="143" y="673"/>
      <point x="140" y="649" type="curve" smooth="yes"/>
      <point x="68" y="62" type="line" smooth="yes"/>
      <point x="65" y="36"/>
      <point x="38" y="31"/>
      <point x="12" y="31" type="curve" smooth="yes"/>
      <point x="7" y="31" type="line"/>
    </contour>
    <contour>
      <point x="47" y="390" type="line"/>
      <point x="43" y="357" type="line"/>
      <point x="417" y="357" type="line"/>
      <point x="421" y="390" type="line"/>
    </contour>
    <contour>
      <point x="275" y="0" type="line"/>
      <point x="465" y="0" type="line"/>
      <point x="469" y="31" type="line"/>
      <point x="465" y="31" type="line" smooth="yes"/>
      <point x="436" y="31"/>
      <point x="425" y="36"/>
      <point x="417" y="56" type="curve" smooth="yes"/>
      <point x="302" y="378" type="line"/>
      <point x="281" y="381" type="line"/>
      <point x="447" y="638" type="line" smooth="yes"/>
      <point x="468" y="671"/>
      <point x="480" y="679"/>
      <point x="515" y="679" type="curve" smooth="yes"/>
      <point x="521" y="679" type="line"/>
      <point x="525" y="710" type="line"/>
      <point x="379" y="710" type="line"/>
      <point x="376" y="679" type="line"/>
      <point x="385" y="679" type="line" smooth="yes"/>
      <point x="407" y="679"/>
      <point x="430" y="674"/>
      <point x="429" y="665" type="curve"/>
      <point x="235" y="376" type="line"/>
      <point x="218" y="375" type="line"/>
      <point x="332" y="41" type="line"/>
      <point x="331" y="34"/>
      <point x="304" y="31"/>
      <point x="288" y="31" type="curve" smooth="yes"/>
      <point x="279" y="31" type="line"/>
    </contour>
  </outline>
</glyph>
<glyph name="manat.proportional" format="2">
  <advance width="450"/>
  <outline>
    <contour>
      <point x="267" y="720" type="line"/>
      <point x="195" y="136" type="line"/>
      <point x="225" y="136" type="line"/>
      <point x="297" y="720" type="line"/>
    </contour>
    <contour>
      <point x="-10" y="0" type="curve"/>
      <point x="74" y="0" type="line"/>
      <point x="122" y="395"/>
      <point x="170" y="552"/>
      <point x="262" y="552" type="curve" smooth="yes"/>
      <point x="364" y="552"/>
      <point x="361" y="392"/>
      <point x="312" y="0" type="curve"/>
      <point x="396" y="0" type="line"/>
      <point x="439" y="358"/>
      <point x="405" y="583"/>
      <point x="262" y="583" type="curve" smooth="yes"/>
      <point x="124" y="583"/>
      <point x="33" y="370"/>
    </contour>
  </outline>
</glyph>
<glyph name="minus.sub" format="2">
  <advance width="278"/>
  <outline>
    <contour>
      <point x="205" y="92" type="line"/>
      <point x="-2" y="92" type="line"/>
      <point x="-4" y="68" type="line"/>
      <point x="202" y="68" type="line"/>
    </contour>
  </outline>
</glyph>
<glyph name="one.oldprop" format="2">
  <advance width="353"/>
  <outline>
    <contour>
      <point x="210" y="71" type="curve" smooth="yes"/>
      <point x="269" y="548" type="line"/>
      <point x="218" y="548" type="line"/>
      <point x="186" y="491"/>
      <point x="136" y="466"/>
      <point x="66" y="465" type="curve"/>
      <point x="58" y="408" type="line"/>
      <point x="115" y="406"/>
      <point x="173" y="456"/>
      <point x="194" y="507" type="curve"/>
      <point x="182" y="494" type="line"/>
      <point x="130" y="71" type="line" smooth="yes"/>
      <point x="127" y="40"/>
      <point x="100" y="32"/>
      <point x="54" y="32" type="curve" smooth="yes"/>
      <point x="28" y="32" type="line"/>
      <point x="24" y="0" type="line"/>
      <point x="296" y="0" type="line"/>
      <point x="301" y="32" type="line"/>
      <point x="283" y="32" type="line" smooth="yes"/>
      <point x="234" y="32"/>
      <point x="206" y="40"/>
    </contour>
  </outline>
</glyph>
<glyph name="one.oldtab" format="2">
  <advance width="393"/>
  <outline>
    <contour>
      <point x="235" y="71" type="curve" smooth="yes"/>
      <point x="294" y="548" type="line"/>
      <point x="244" y="548" type="line"/>
      <point x="211" y="490"/>
      <point x="158" y="466"/>
      <point x="83" y="465" type="curve"/>
      <point x="75" y="408" type="line"/>
      <point x="135" y="406"/>
      <point x="198" y="455"/>
      <point x="219" y="507" type="curve"/>
      <point x="208" y="494" type="line"/>
      <point x="156" y="71" type="line" smooth="yes"/>
      <point x="152" y="40"/>
      <point x="123" y="32"/>
      <point x="72" y="32" type="curve" smooth="yes"/>
      <point x="43" y="32" type="line"/>
      <point x="39" y="0" type="line"/>
      <point x="333" y="0" type="line"/>
      <point x="337" y="32" type="line"/>
      <point x="317" y="32" type="line" smooth="yes"/>
      <point x="262" y="32"/>
      <point x="232" y="40"/>
    </contour>
  </outline>
</glyph>
<glyph name="parenleft.uc" format="2">
  <advance width="246"/>
  <outline>
    <contour>
      <point x="166" y="-40" type="curve"/>
      <point x="189" y="-40" type="line"/>
      <point x="189" y="-37" type="line"/>
      <point x="144" y="25"/>
      <point x="104" y="135"/>
      <point x="104" y="289" type="curve" smooth="yes"/>
      <point x="104" y="531"/>
      <point x="192" y="663"/>
      <point x="282" y="747" type="curve"/>
      <point x="282" y="750" type="line"/>
      <point x="259" y="750" type="line"/>
      <point x="151" y="679"/>
      <point x="34" y="531"/>
      <point x="34" y="293" type="curve" smooth="yes"/>
      <point x="34" y="144"/>
      <point x="100" y="33"/>
    </contour>
  </outline>
</glyph>
<glyph name="peso.proportional" format="2">
  <advance width="473"/>
  <outline>
    <contour>
      <point x="67" y="505" type="line"/>
      <point x="63" y="472" type="line"/>
      <point x="146" y="472" type="line"/>
      <point x="163" y="472" type="line"/>
      <point x="377" y="472" type="line"/>
      <point x="391" y="472" type="line"/>
      <point x="479" y="472" type="line"/>
      <point x="483" y="505" type="line"/>
      <point x="393" y="505" type="line"/>
      <point x="378" y="505" type="line"/>
      <point x="166" y="505" type="line"/>
      <point x="153" y="505" type="line"/>
    </contour>
    <contour>
      <point x="177" y="300" type="line"/>
      <point x="224" y="675" type="line"/>
      <point x="255" y="675" type="line" smooth="yes"/>
      <point x="315" y="675"/>
      <point x="350" y="628"/>
      <point x="350" y="519" type="curve" smooth="yes"/>
      <point x="350" y="490"/>
      <point x="348" y="462"/>
      <point x="343" y="438" type="curve" smooth="yes"/>
      <point x="328" y="355"/>
      <point x="288" y="300"/>
      <point x="221" y="300" type="curve" smooth="yes"/>
    </contour>
    <contour>
      <point x="97" y="710" type="line"/>
      <point x="92" y="679" type="line"/>
      <point x="97" y="679" type="line" smooth="yes"/>
      <point x="118" y="679"/>
      <point x="142" y="672"/>
      <point x="140" y="647" type="curve" smooth="yes"/>
      <point x="68" y="64" type="line" smooth="yes"/>
      <point x="64" y="38"/>
      <point x="41" y="31"/>
      <point x="17" y="31" type="curve" smooth="yes"/>
      <point x="13" y="31" type="line"/>
      <point x="8" y="0" type="line"/>
      <point x="200" y="0" type="line"/>
      <point x="204" y="31" type="line"/>
      <point x="191" y="31" type="line" smooth="yes"/>
      <point x="171" y="31"/>
      <point x="145" y="35"/>
      <point x="147" y="55" type="curve" smooth="yes"/>
      <point x="173" y="266" type="line"/>
      <point x="222" y="266" type="line" smooth="yes"/>
      <point x="354" y="266"/>
      <point x="430" y="375"/>
      <point x="430" y="511" type="curve" smooth="yes"/>
      <point x="430" y="643"/>
      <point x="367" y="710"/>
      <point x="260" y="710" type="curve" smooth="yes"/>
    </contour>
  </outline>
</glyph>
<glyph name="ring.uc" format="2">
  <advance width="351"/>
  <anchor x="168" y="731" name="_top"/>
  <outline>
    <contour>
      <point x="190" y="784" type="curve" smooth="yes"/>
      <point x="169" y="784"/>
      <point x="156" y="808"/>
      <point x="156" y="851" type="curve" smooth="yes"/>
      <point x="156" y="898"/>
      <point x="172" y="931"/>
      <point x="197" y="931" type="curve" smooth="yes"/>
      <point x="218" y="931"/>
      <point x="231" y="907"/>
      <point x="231" y="865" type="curve" smooth="yes"/>
      <point x="231" y="818"/>
      <point x="215" y="784"/>
    </contour>
    <contour>
      <point x="191" y="759" type="curve" smooth="yes"/>
      <point x="237" y="759"/>
      <point x="277" y="795"/>
      <point x="277" y="864" type="curve" smooth="yes"/>
      <point x="277" y="923"/>
      <point x="240" y="956"/>
      <point x="197" y="956" type="curve" smooth="yes"/>
      <point x="150" y="956"/>
      <point x="110" y="920"/>
      <point x="110" y="851" type="curve" smooth="yes"/>
      <point x="110" y="792"/>
      <point x="148" y="759"/>
    </contour>
  </outline>
</glyph>
<glyph name="rupeeIndian.proportional" format="2">
  <advance width="400"/>
  <outline>
    <contour>
      <point x="204" y="0" type="line"/>
      <point x="314" y="0" type="line"/>
      <point x="318" y="31" type="line"/>
      <point x="311" y="31" type="line" smooth="yes"/>
      <point x="288" y="31"/>
      <point x="273" y="44"/>
      <point x="253" y="79" type="curve" smooth="yes"/>
      <point x="126" y="303" type="line"/>
      <point x="65" y="286" type="line"/>
      <point x="87" y="286" type="line" smooth="yes"/>
      <point x="233" y="286"/>
      <point x="323" y="378"/>
      <point x="323" y="508" type="curve" smooth="yes"/>
      <point x="323" y="600"/>
      <point x="283" y="670"/>
      <point x="173" y="694" type="curve"/>
      <point x="168" y="677" type="line"/>
      <point x="414" y="677" type="line"/>
      <point x="418" y="710" type="line"/>
      <point x="85" y="710" type="line"/>
      <point x="81" y="677" type="line"/>
      <point x="122" y="677" type="line" smooth="yes"/>
      <point x="218" y="677"/>
      <point x="241" y="610"/>
      <point x="241" y="511" type="curve" smooth="yes"/>
      <point x="241" y="389"/>
      <point x="181" y="316"/>
      <point x="69" y="316" type="curve" smooth="yes"/>
      <point x="36" y="316" type="line"/>
      <point x="34" y="295" type="line"/>
    </contour>
    <contour>
      <point x="61" y="512" type="line"/>
      <point x="56" y="479" type="line"/>
      <point x="389" y="479" type="line"/>
      <point x="394" y="512" type="line"/>
    </contour>
  </outline>
</glyph>
<glyph name="slash.uc" format="2">
  <advance width="296"/>
  <outline>
    <contour>
      <point x="318" y="750" type="line"/>
      <point x="-14" y="-39" type="line"/>
      <point x="17" y="-39" type="line"/>
      <point x="349" y="750" type="line"/>
    </contour>
  </outline>
</glyph>
<glyph name="sterling.alt" format="2">
  <advance width="393"/>
  <outline>
    <contour>
      <point x="-8" y="0" type="line"/>
      <point x="327" y="0" type="line"/>
      <point x="357" y="245" type="line"/>
      <point x="332" y="245" type="line"/>
      <point x="308" y="135" type="line" smooth="yes"/>
      <point x="297" y="90"/>
      <point x="272" y="76"/>
      <point x="213" y="76" type="curve"/>
      <point x="62" y="76" type="line"/>
      <point x="49" y="46" type="line"/>
      <point x="119" y="87"/>
      <point x="182" y="186"/>
      <point x="182" y="302" type="curve" smooth="yes"/>
      <point x="182" y="377"/>
      <point x="166" y="435"/>
      <point x="166" y="508" type="curve" smooth="yes"/>
      <point x="166" y="645"/>
      <point x="205" y="689"/>
      <point x="264" y="689" type="curve" smooth="yes"/>
      <point x="307" y="689"/>
      <point x="333" y="664"/>
      <point x="345" y="634" type="curve"/>
      <point x="350" y="646"/>
      <point x="345" y="679"/>
      <point x="323" y="681" type="curve"/>
      <point x="309" y="570" type="line"/>
      <point x="379" y="570" type="line"/>
      <point x="391" y="663" type="line"/>
      <point x="373" y="687"/>
      <point x="328" y="720"/>
      <point x="263" y="720" type="curve" smooth="yes"/>
      <point x="157" y="720"/>
      <point x="85" y="642"/>
      <point x="85" y="512" type="curve" smooth="yes"/>
      <point x="85" y="419"/>
      <point x="123" y="359"/>
      <point x="123" y="265" type="curve" smooth="yes"/>
      <point x="123" y="162"/>
      <point x="65" y="89"/>
      <point x="-2" y="40" type="curve"/>
    </contour>
    <contour>
      <point x="42" y="361" type="line"/>
      <point x="37" y="328" type="line"/>
      <point x="303" y="328" type="line"/>
      <point x="307" y="361" type="line"/>
    </contour>
  </outline>
</glyph>
<glyph name="sterling.proportional" format="2">
  <advance width="419"/>
  <outline>
    <contour>
      <point x="274" y="689" type="curve" smooth="yes"/>
      <point x="322" y="689"/>
      <point x="350" y="663"/>
      <point x="364" y="631" type="curve"/>
      <point x="369" y="644"/>
      <point x="363" y="677"/>
      <point x="342" y="679" type="curve"/>
      <point x="327" y="567" type="line"/>
      <point x="397" y="567" type="line"/>
      <point x="409" y="660" type="line"/>
      <point x="391" y="685"/>
      <point x="342" y="720"/>
      <point x="273" y="720" type="curve" smooth="yes"/>
      <point x="163" y="720"/>
      <point x="89" y="641"/>
      <point x="89" y="510" type="curve" smooth="yes"/>
      <point x="89" y="414"/>
      <point x="122" y="351"/>
      <point x="122" y="253" type="curve" smooth="yes"/>
      <point x="122" y="148"/>
      <point x="96" y="48"/>
      <point x="-2" y="23" type="curve"/>
      <point x="-6" y="-13" type="line"/>
      <point x="130" y="16"/>
      <point x="185" y="143"/>
      <point x="185" y="292" type="curve" smooth="yes"/>
      <point x="185" y="372"/>
      <point x="173" y="431"/>
      <point x="173" y="506" type="curve" smooth="yes"/>
      <point x="173" y="645"/>
      <point x="214" y="689"/>
    </contour>
    <contour>
      <point x="36" y="356" type="line"/>
      <point x="31" y="323" type="line"/>
      <point x="316" y="323" type="line"/>
      <point x="321" y="356" type="line"/>
    </contour>
    <contour>
      <point x="278" y="-10" type="curve" smooth="yes"/>
      <point x="327" y="-10"/>
      <point x="364" y="59"/>
      <point x="387" y="168" type="curve"/>
      <point x="366" y="180" type="line"/>
      <point x="347" y="107"/>
      <point x="322" y="84"/>
      <point x="284" y="84" type="curve" smooth="yes"/>
      <point x="249" y="84"/>
      <point x="212" y="88"/>
      <point x="148" y="161" type="curve"/>
      <point x="134" y="139" type="line"/>
      <point x="203" y="43"/>
      <point x="223" y="-10"/>
    </contour>
  </outline>
</glyph>
<glyph name="y.alt" format="2">
  <advance width="407"/>
  <outline>
    <contour>
      <point x="133" y="-229" type="curve" smooth="yes"/>
      <point x="238" y="-229"/>
      <point x="306" y="-144"/>
      <point x="326" y="11" type="curve" smooth="yes"/>
      <point x="389" y="518" type="line"/>
      <point x="310" y="518" type="line"/>
      <point x="247" y="12" type="line" smooth="yes"/>
      <point x="228" y="-133"/>
      <point x="192" y="-196"/>
      <point x="129" y="-196" type="curve" smooth="yes"/>
      <point x="84" y="-196"/>
      <point x="54" y="-169"/>
      <point x="47" y="-130" type="curve"/>
      <point x="38" y="-161"/>
      <point x="42" y="-178"/>
      <point x="68" y="-180" type="curve"/>
      <point x="83" y="-76" type="line"/>
      <point x="10" y="-76" type="line"/>
      <point x="0" y="-157" type="line"/>
      <point x="23" y="-195"/>
      <point x="69" y="-229"/>
    </contour>
    <contour>
      <point x="46" y="518" type="line"/>
      <point x="42" y="488" type="line"/>
      <point x="50" y="486" type="line" smooth="yes"/>
      <point x="80" y="477"/>
      <point x="96" y="470"/>
      <point x="92" y="442" type="curve" smooth="yes"/>
      <point x="56" y="170" type="line" smooth="yes"/>
      <point x="53" y="151"/>
      <point x="52" y="131"/>
      <point x="52" y="111" type="curve" smooth="yes"/>
      <point x="52" y="41"/>
      <point x="80" y="-10"/>
      <point x="139" y="-10" type="curve" smooth="yes"/>
      <point x="209" y="-10"/>
      <point x="245" y="63"/>
      <point x="292" y="211" type="curve"/>
      <point x="282" y="238" type="line"/>
      <point x="241" y="98"/>
      <point x="209" y="34"/>
      <point x="166" y="34" type="curve" smooth="yes"/>
      <point x="138" y="34"/>
      <point x="130" y="61"/>
      <point x="130" y="97" type="curve" smooth="yes"/>
      <point x="130" y="117"/>
      <point x="132" y="142"/>
      <point x="135" y="164" type="curve" smooth="yes"/>
      <point x="179" y="518" type="line"/>
    </contour>
  </outline>
</glyph>
<glyph name="zero.oldprop" format="2">
  <advance width="408"/>
  <outline>
    <contour>
      <point x="225" y="527" type="curve" smooth="yes"/>
      <point x="280" y="527"/>
      <point x="307" y="460"/>
      <point x="307" y="332" type="curve" smooth="yes"/>
      <point x="307" y="299"/>
      <point x="304" y="265"/>
      <point x="299" y="231" type="curve" smooth="yes"/>
      <point x="283" y="113"/>
      <point x="243" y="21"/>
      <point x="182" y="21" type="curve" smooth="yes"/>
      <point x="131" y="21"/>
      <point x="102" y="85"/>
      <point x="102" y="216" type="curve" smooth="yes"/>
      <point x="102" y="254"/>
      <point x="104" y="293"/>
      <point x="111" y="330" type="curve" smooth="yes"/>
      <point x="128" y="443"/>
      <point x="167" y="527"/>
    </contour>
    <contour>
      <point x="226" y="558" type="curve" smooth="yes"/>
      <point x="91" y="558"/>
      <point x="22" y="388"/>
      <point x="22" y="234" type="curve" smooth="yes"/>
      <point x="22" y="81"/>
      <point x="89" y="-10"/>
      <point x="182" y="-10" type="curve" smooth="yes"/>
      <point x="317" y="-10"/>
      <point x="386" y="162"/>
      <point x="386" y="314" type="curve" smooth="yes"/>
      <point x="386" y="468"/>
      <point x="320" y="558"/>
    </contour>
  </outline>
</glyph>
<glyph name="zero.slashold" format="2">
  <advance width="408"/>
  <outline>
    <contour>
      <point x="182" y="-10" type="curve" smooth="yes"/>
      <point x="317" y="-10"/>
      <point x="386" y="162"/>
      <point x="386" y="314" type="curve" smooth="yes"/>
      <point x="386" y="468"/>
      <point x="320" y="558"/>
      <point x="226" y="558" type="curve" smooth="yes"/>
      <point x="91" y="558"/>
      <point x="22" y="388"/>
      <point x="22" y="234" type="curve" smooth="yes"/>
      <point x="22" y="81"/>
      <point x="89" y="-10"/>
    </contour>
    <contour>
      <point x="85" y="118" type="line"/>
      <point x="329" y="396" type="line"/>
      <point x="327" y="432" type="line"/>
      <point x="81" y="152" type="line"/>
    </contour>
    <contour>
      <point x="182" y="21" type="curve" smooth="yes"/>
      <point x="131" y="21"/>
      <point x="101" y="86"/>
      <point x="101" y="216" type="curve" smooth="yes"/>
      <point x="101" y="254"/>
      <point x="104" y="293"/>
      <point x="111" y="330" type="curve" smooth="yes"/>
      <point x="127" y="443"/>
      <point x="167" y="527"/>
      <point x="225" y="527" type="curve" smooth="yes"/>
      <point x="280" y="527"/>
      <point x="307" y="460"/>
      <point x="307" y="332" type="curve" smooth="yes"/>
      <point x="307" y="299"/>
      <point x="305" y="265"/>
      <point x="300" y="231" type="curve" smooth="yes"/>
      <point x="284" y="113"/>
      <point x="243" y="21"/>
    </contour>
  </outline>
</glyph>
